<svg width="65" height="70" viewBox="0 0 65 70" fill="none" xmlns="http://www.w3.org/2000/svg">
<path d="M4.24585 21.7L30 36.6041L55.5792 21.7875M30 63.0291V36.575" stroke="black" stroke-width="1.5" stroke-linecap="round" stroke-linejoin="round"/>
<path d="M58.0292 26.7459V43.2542C58.0292 43.4 58.0292 43.5167 58 43.6625C55.9583 41.8834 53.3333 40.8334 50.4167 40.8334C47.675 40.8334 45.1375 41.7959 43.125 43.4C41.7559 44.488 40.6511 45.872 39.8934 47.448C39.1356 49.0241 38.7447 50.7513 38.75 52.5C38.75 54.6875 39.3625 56.7584 40.4417 58.5084C40.7042 58.975 41.025 59.4125 41.375 59.8209L36.0375 62.7667C32.7125 64.6334 27.2875 64.6334 23.9625 62.7667L8.38749 54.1334C4.85833 52.1792 1.97083 47.2792 1.97083 43.2542V26.7459C1.97083 22.7209 4.85833 17.8209 8.38749 15.8667L23.9625 7.23337C27.2875 5.36671 32.7125 5.36671 36.0375 7.23337L51.6125 15.8667C55.1417 17.8209 58.0292 22.7209 58.0292 26.7459Z" stroke="black" stroke-width="1.5" stroke-linecap="round" stroke-linejoin="round"/>
<path d="M62.0833 52.4999C62.0833 55.9999 60.5375 59.1208 58.1167 61.2499C55.9898 63.1257 53.2525 64.1625 50.4167 64.1666C43.9708 64.1666 38.75 58.9458 38.75 52.4999C38.75 48.8249 40.4417 45.5291 43.125 43.3999C44.84 42.0254 46.9084 41.1634 49.092 40.9132C51.2756 40.663 53.4854 41.0349 55.4668 41.986C57.4483 42.9371 59.1207 44.4287 60.2913 46.2888C61.4619 48.149 62.0831 50.3021 62.0833 52.4999V52.4999Z" stroke="black" stroke-width="1.5" stroke-miterlimit="10" stroke-linecap="round" stroke-linejoin="round"/>
<path d="M51.1458 48.8541V53.2291L47.5 55.4166" stroke="black" stroke-width="1.5" stroke-miterlimit="10" stroke-linecap="round" stroke-linejoin="round"/>
</svg>
