<svg width="70" height="70" viewBox="0 0 70 70" fill="none" xmlns="http://www.w3.org/2000/svg">
<path d="M29.1667 49.4375H18.1125C8.28333 49.4375 5.83333 46.9875 5.83333 37.1583V19.6583C5.83333 9.82915 8.28333 7.37915 18.1125 7.37915H48.825C58.6542 7.37915 61.1042 9.82915 61.1042 19.6583M29.1667 62.6208V49.4375M5.83333 37.7708H29.1667M19.6583 62.6208H29.1667" stroke="#070E28" stroke-width="2" stroke-linecap="round" stroke-linejoin="round"/>
<path d="M64.1667 37.3333V53.9875C64.1667 60.9 62.4458 62.6208 55.5333 62.6208H45.1792C38.2667 62.6208 36.5458 60.9 36.5458 53.9875V37.3333C36.5458 30.4208 38.2667 28.7 45.1792 28.7H55.5333C62.4458 28.7 64.1667 30.4208 64.1667 37.3333Z" stroke="#070E28" stroke-width="2" stroke-linecap="round" stroke-linejoin="round"/>
<path d="M50.295 53.2291H50.3242" stroke="#070E28" stroke-width="2" stroke-linecap="round" stroke-linejoin="round"/>
</svg>
