<svg width="65" height="70" viewBox="0 0 65 70" fill="none" xmlns="http://www.w3.org/2000/svg">
<path d="M27.0833 5.83337H21.25C6.66665 5.83337 0.833313 11.6667 0.833313 26.25V43.75C0.833313 58.3334 6.66665 64.1667 21.25 64.1667H38.75C53.3333 64.1667 59.1666 58.3334 59.1666 43.75V37.9167" stroke="#070E28" stroke-width="2" stroke-linecap="round" stroke-linejoin="round"/>
<path d="M41.7833 8.80834L18.8 31.7917C17.925 32.6667 17.05 34.3875 16.875 35.6417L15.6208 44.4208C15.1542 47.6 17.4 49.8167 20.5792 49.3792L29.3583 48.125C30.5833 47.95 32.3042 47.075 33.2083 46.2L56.1917 23.2167C60.1583 19.25 62.025 14.6417 56.1917 8.80834C50.3583 2.975 45.75 4.84167 41.7833 8.80834V8.80834Z" stroke="#070E28" stroke-width="2" stroke-miterlimit="10" stroke-linecap="round" stroke-linejoin="round"/>
<path d="M38.4875 12.1041C39.4546 15.5384 41.2874 18.6668 43.8103 21.1897C46.3331 23.7125 49.4615 25.5453 52.8958 26.5125" stroke="#070E28" stroke-width="2" stroke-miterlimit="10" stroke-linecap="round" stroke-linejoin="round"/>
</svg>
