<svg width="61" height="61" viewBox="0 0 61 61" fill="none" xmlns="http://www.w3.org/2000/svg">
<path d="M55.9167 30.5C55.9167 16.47 44.53 5.08337 30.5 5.08337C16.47 5.08337 5.08333 16.47 5.08333 30.5C5.08333 44.53 16.47 55.9167 30.5 55.9167" stroke="black" stroke-width="1.5" stroke-linecap="round" stroke-linejoin="round"/>
<path d="M20.3333 7.625H22.875C17.9188 22.4723 17.9188 38.5277 22.875 53.375H20.3333M38.125 7.625C40.5904 15.0467 41.8358 22.7733 41.8358 30.5" stroke="black" stroke-width="1.5" stroke-linecap="round" stroke-linejoin="round"/>
<path d="M7.625 40.6666V38.125C15.0467 40.5904 22.7733 41.8358 30.5 41.8358M7.625 22.875C22.4723 17.9188 38.5277 17.9188 53.375 22.875M55.9167 55.9166L53.375 53.375M46.2583 54.3916C48.4154 54.3916 50.4842 53.5347 52.0095 52.0094C53.5348 50.4841 54.3917 48.4154 54.3917 46.2583C54.3917 44.1012 53.5348 42.0325 52.0095 40.5072C50.4842 38.9819 48.4154 38.125 46.2583 38.125C44.1012 38.125 42.0325 38.9819 40.5072 40.5072C38.9819 42.0325 38.125 44.1012 38.125 46.2583C38.125 48.4154 38.9819 50.4841 40.5072 52.0094C42.0325 53.5347 44.1012 54.3916 46.2583 54.3916Z" stroke="black" stroke-width="1.5" stroke-linecap="round" stroke-linejoin="round"/>
</svg>
