<svg width="122" height="38" viewBox="0 0 122 38" fill="none" xmlns="http://www.w3.org/2000/svg">
<g clip-path="url(#clip0_134_315)">
<path d="M12.2115 0C5.46201 0.0761905 0 5.44762 0 12.0762C0 18.7048 5.46201 24.0762 12.2115 24.1524V0Z" fill="#070E28"/>
<path d="M33.767 3.80952V11.9238L14.2013 11.9238V0L29.8655 0C32.0113 0 33.767 1.71429 33.767 3.80952Z" fill="#070E28"/>
<path d="M25.7885 38C32.5379 37.9238 37.9999 32.5524 37.9999 25.9238C37.9999 19.2952 32.5379 13.9238 25.7885 13.8476V38Z" fill="#070E28"/>
<path d="M4.23303 34.1905L4.23303 26.0762H23.7987V38H8.13447C5.96917 38 4.23303 36.2857 4.23303 34.1905V34.1905Z" fill="#070E28"/>
</g>
<path d="M46.9961 13.7319C47.2783 13.7707 47.5827 13.8039 47.9092 13.8315C48.1914 13.8592 48.5124 13.8813 48.8721 13.8979C49.2373 13.9146 49.6219 13.9229 50.0259 13.9229C50.5627 13.9229 50.9888 13.8896 51.3042 13.8232C51.6196 13.7513 51.8604 13.6489 52.0264 13.5161C52.1924 13.3778 52.2975 13.209 52.3418 13.0098C52.3916 12.8105 52.4165 12.5809 52.4165 12.3208C52.4165 12.116 52.4054 11.9307 52.3833 11.7647C52.3667 11.5931 52.3224 11.4409 52.2505 11.3081C52.1786 11.1753 52.0762 11.0618 51.9434 10.9678C51.8106 10.8682 51.6279 10.7879 51.3955 10.727L48.98 10.0962C48.5981 9.99658 48.2744 9.86377 48.0088 9.69775C47.7432 9.5262 47.5273 9.31038 47.3613 9.05029C47.2009 8.7902 47.0819 8.47754 47.0044 8.1123C46.9325 7.74154 46.8965 7.30713 46.8965 6.80908C46.8965 6.22249 46.985 5.71615 47.1621 5.29004C47.3392 4.8584 47.5882 4.50423 47.9092 4.22754C48.2357 3.95085 48.6286 3.74609 49.0879 3.61328C49.5472 3.48047 50.0591 3.41406 50.6235 3.41406C51.0939 3.41406 51.5228 3.44173 51.9102 3.49707C52.3031 3.54688 52.6406 3.60221 52.9229 3.66309C53.2549 3.73503 53.5565 3.81527 53.8276 3.90381V5.43945C53.5786 5.40625 53.3158 5.37581 53.0391 5.34814C52.8011 5.32048 52.5327 5.29834 52.2339 5.28174C51.9406 5.2596 51.6362 5.24854 51.3208 5.24854C50.8283 5.24854 50.4243 5.26514 50.1089 5.29834C49.7935 5.33154 49.5444 5.40072 49.3618 5.50586C49.1792 5.611 49.0519 5.76042 48.98 5.9541C48.908 6.14779 48.8721 6.40511 48.8721 6.72607C48.8721 6.90316 48.8804 7.06087 48.897 7.19922C48.9191 7.33757 48.9634 7.45931 49.0298 7.56445C49.1017 7.6696 49.2013 7.7609 49.3286 7.83838C49.4614 7.91585 49.6385 7.98779 49.8599 8.0542L52.1094 8.70166C52.3971 8.78467 52.6517 8.87321 52.8731 8.96729C53.0999 9.05583 53.2964 9.16374 53.4624 9.29102C53.6284 9.41276 53.7695 9.55664 53.8857 9.72266C54.0075 9.88867 54.1043 10.0879 54.1763 10.3203C54.2482 10.5472 54.3008 10.8156 54.334 11.1255C54.3672 11.4354 54.3838 11.7923 54.3838 12.1963C54.3838 12.8271 54.3285 13.3695 54.2178 13.8232C54.1126 14.2715 53.9106 14.6395 53.6118 14.9272C53.313 15.2095 52.9007 15.417 52.375 15.5498C51.8548 15.6882 51.1797 15.7573 50.3496 15.7573C49.7077 15.7573 49.1737 15.7269 48.7476 15.666C48.327 15.6107 47.9839 15.547 47.7183 15.4751C47.4139 15.3921 47.1732 15.298 46.9961 15.1929V13.7319ZM55.9941 11.1172C55.9941 10.3757 56.0744 9.71989 56.2349 9.1499C56.3953 8.57438 56.6444 8.09017 56.9819 7.69727C57.325 7.30436 57.7567 7.00553 58.2769 6.80078C58.797 6.59603 59.4196 6.49365 60.1445 6.49365C60.8695 6.49365 61.492 6.59603 62.0122 6.80078C62.5379 7.00553 62.9696 7.30436 63.3071 7.69727C63.6447 8.09017 63.8937 8.57438 64.0542 9.1499C64.2147 9.71989 64.2949 10.3757 64.2949 11.1172C64.2949 11.8587 64.2147 12.52 64.0542 13.1011C63.8937 13.6766 63.6447 14.1608 63.3071 14.5537C62.9696 14.9466 62.5379 15.2454 62.0122 15.4502C61.492 15.6549 60.8695 15.7573 60.1445 15.7573C59.4196 15.7573 58.797 15.6549 58.2769 15.4502C57.7567 15.2454 57.325 14.9466 56.9819 14.5537C56.6444 14.1608 56.3953 13.6766 56.2349 13.1011C56.0744 12.52 55.9941 11.8587 55.9941 11.1172ZM60.1445 14.0889C60.5817 14.0889 60.9359 14.0252 61.207 13.8979C61.4782 13.7651 61.6885 13.5742 61.8379 13.3252C61.9873 13.0706 62.0869 12.7607 62.1367 12.3955C62.1921 12.0247 62.2197 11.5986 62.2197 11.1172C62.2197 10.6413 62.1921 10.2207 62.1367 9.85547C62.0869 9.4847 61.9873 9.1748 61.8379 8.92578C61.6885 8.67122 61.4782 8.48031 61.207 8.35303C60.9359 8.22021 60.5817 8.15381 60.1445 8.15381C59.7129 8.15381 59.3615 8.22021 59.0903 8.35303C58.8192 8.48031 58.6061 8.67122 58.4512 8.92578C58.3018 9.1748 58.1994 9.4847 58.144 9.85547C58.0942 10.2207 58.0693 10.6413 58.0693 11.1172C58.0693 11.5986 58.0942 12.0247 58.144 12.3955C58.1994 12.7607 58.3018 13.0706 58.4512 13.3252C58.6061 13.5742 58.8192 13.7651 59.0903 13.8979C59.3615 14.0252 59.7129 14.0889 60.1445 14.0889ZM66.4531 6.74268H67.8975L68.1382 7.39014C68.4425 7.22412 68.7746 7.07471 69.1343 6.94189C69.4442 6.83122 69.8011 6.72884 70.2051 6.63477C70.609 6.54069 71.0407 6.49365 71.5 6.49365C72.3633 6.49365 72.9997 6.72054 73.4092 7.17432C73.8242 7.62256 74.0317 8.32812 74.0317 9.29102V15.5H72.0645V9.53174C72.0645 9.30485 72.0479 9.11117 72.0146 8.95068C71.987 8.78467 71.9233 8.65186 71.8237 8.55225C71.7241 8.4471 71.5802 8.36963 71.3921 8.31982C71.2039 8.27002 70.9521 8.24512 70.6367 8.24512C70.3047 8.24512 70.0031 8.26725 69.7319 8.31152C69.4608 8.35026 69.2284 8.39176 69.0347 8.43604C68.8078 8.49137 68.603 8.55225 68.4204 8.61865V15.5H66.4531V6.74268ZM79.2861 15.7573C78.7936 15.7573 78.3592 15.6771 77.9829 15.5166C77.6121 15.3561 77.3022 15.096 77.0532 14.7363C76.8042 14.3711 76.6133 13.8952 76.4805 13.3086C76.3532 12.722 76.2868 12.0054 76.2812 11.1587C76.2702 10.3176 76.3311 9.60091 76.4639 9.00879C76.6022 8.41667 76.7987 7.93522 77.0532 7.56445C77.3133 7.18815 77.6287 6.91699 77.9995 6.75098C78.3758 6.57943 78.7992 6.49365 79.2695 6.49365C79.7012 6.49365 80.0941 6.52686 80.4482 6.59326C80.8024 6.65967 81.1095 6.73161 81.3696 6.80908C81.674 6.90316 81.9424 7.00553 82.1748 7.11621V2.60059H84.1504V15.5H82.4487L82.3325 14.8027C82.0835 14.9798 81.8013 15.1403 81.4858 15.2842C81.2147 15.4059 80.891 15.5138 80.5146 15.6079C80.1439 15.7075 79.7344 15.7573 79.2861 15.7573ZM79.9834 13.9893C80.2712 13.9893 80.5451 13.9699 80.8052 13.9312C81.0708 13.8869 81.306 13.8371 81.5107 13.7817C81.7487 13.7209 81.9701 13.6489 82.1748 13.5659V8.56055C81.9479 8.50521 81.7072 8.45264 81.4526 8.40283C81.2368 8.3641 80.9878 8.32812 80.7056 8.29492C80.4289 8.26172 80.1439 8.24512 79.8506 8.24512C79.5462 8.24512 79.2972 8.29769 79.1035 8.40283C78.9098 8.50244 78.7576 8.67122 78.647 8.90918C78.5363 9.14714 78.4588 9.4598 78.4146 9.84717C78.3758 10.2345 78.3564 10.7132 78.3564 11.2832C78.3564 11.7757 78.3758 12.1935 78.4146 12.5366C78.4533 12.8797 78.5308 13.1592 78.647 13.375C78.7632 13.5908 78.9264 13.7485 79.1367 13.8481C79.3525 13.9422 79.6348 13.9893 79.9834 13.9893ZM86.8896 6.74268H88.5913L88.7075 7.69727C89.1392 7.41504 89.6234 7.18262 90.1602 7C90.6969 6.81738 91.3001 6.70947 91.9697 6.67627L91.9531 8.71826C91.2614 8.72933 90.661 8.7653 90.1519 8.82617C89.6483 8.88151 89.2166 8.98112 88.8569 9.125V15.5H86.8896V6.74268ZM93.0654 11.0259C93.0654 10.1128 93.1844 9.36296 93.4224 8.77637C93.6603 8.18978 93.9757 7.7277 94.3687 7.39014C94.7616 7.05257 95.2098 6.82015 95.7134 6.69287C96.217 6.56006 96.7344 6.49365 97.2656 6.49365C97.9352 6.49365 98.4886 6.58496 98.9258 6.76758C99.3685 6.9502 99.7199 7.20752 99.98 7.53955C100.24 7.86605 100.423 8.25895 100.528 8.71826C100.633 9.17757 100.686 9.68392 100.686 10.2373C100.686 10.4974 100.675 10.7658 100.652 11.0425C100.636 11.3192 100.611 11.6042 100.578 11.8975H95.0908C95.0964 12.2904 95.1379 12.6224 95.2153 12.8936C95.2983 13.1592 95.4312 13.3778 95.6138 13.5493C95.8019 13.7153 96.0482 13.8371 96.3525 13.9146C96.6624 13.9865 97.047 14.0225 97.5063 14.0225C97.8937 14.0225 98.2562 14.0142 98.5938 13.9976C98.9313 13.9754 99.2274 13.9505 99.4819 13.9229C99.7808 13.8952 100.052 13.8592 100.295 13.8149V15.1929C100.013 15.298 99.7061 15.3921 99.374 15.4751C99.0918 15.547 98.7625 15.6107 98.3862 15.666C98.0099 15.7269 97.6087 15.7573 97.1826 15.7573C96.5296 15.7573 95.9486 15.6743 95.4395 15.5083C94.9303 15.3478 94.4987 15.0822 94.1445 14.7114C93.7959 14.3351 93.5275 13.8454 93.3394 13.2422C93.1567 12.639 93.0654 11.9002 93.0654 11.0259ZM98.8677 10.4199V10.1045C98.8677 9.77246 98.8455 9.4847 98.8013 9.24121C98.7625 8.99219 98.6795 8.78743 98.5522 8.62695C98.425 8.46647 98.2451 8.34749 98.0127 8.27002C97.7803 8.19255 97.4704 8.15381 97.083 8.15381C96.668 8.15381 96.3276 8.20361 96.062 8.30322C95.8019 8.3973 95.5972 8.54118 95.4478 8.73486C95.3039 8.92301 95.2043 9.1582 95.1489 9.44043C95.0991 9.72266 95.0742 10.0491 95.0742 10.4199H98.8677ZM46.9961 30.7319C47.2783 30.7707 47.5827 30.8039 47.9092 30.8315C48.1914 30.8592 48.5124 30.8813 48.8721 30.8979C49.2373 30.9146 49.6219 30.9229 50.0259 30.9229C50.5627 30.9229 50.9888 30.8896 51.3042 30.8232C51.6196 30.7513 51.8604 30.6489 52.0264 30.5161C52.1924 30.3778 52.2975 30.209 52.3418 30.0098C52.3916 29.8105 52.4165 29.5809 52.4165 29.3208C52.4165 29.116 52.4054 28.9307 52.3833 28.7646C52.3667 28.5931 52.3224 28.4409 52.2505 28.3081C52.1786 28.1753 52.0762 28.0618 51.9434 27.9678C51.8106 27.8682 51.6279 27.7879 51.3955 27.7271L48.98 27.0962C48.5981 26.9966 48.2744 26.8638 48.0088 26.6978C47.7432 26.5262 47.5273 26.3104 47.3613 26.0503C47.2009 25.7902 47.0819 25.4775 47.0044 25.1123C46.9325 24.7415 46.8965 24.3071 46.8965 23.8091C46.8965 23.2225 46.985 22.7161 47.1621 22.29C47.3392 21.8584 47.5882 21.5042 47.9092 21.2275C48.2357 20.9508 48.6286 20.7461 49.0879 20.6133C49.5472 20.4805 50.0591 20.4141 50.6235 20.4141C51.0939 20.4141 51.5228 20.4417 51.9102 20.4971C52.3031 20.5469 52.6406 20.6022 52.9229 20.6631C53.2549 20.735 53.5565 20.8153 53.8276 20.9038V22.4395C53.5786 22.4062 53.3158 22.3758 53.0391 22.3481C52.8011 22.3205 52.5327 22.2983 52.2339 22.2817C51.9406 22.2596 51.6362 22.2485 51.3208 22.2485C50.8283 22.2485 50.4243 22.2651 50.1089 22.2983C49.7935 22.3315 49.5444 22.4007 49.3618 22.5059C49.1792 22.611 49.0519 22.7604 48.98 22.9541C48.908 23.1478 48.8721 23.4051 48.8721 23.7261C48.8721 23.9032 48.8804 24.0609 48.897 24.1992C48.9191 24.3376 48.9634 24.4593 49.0298 24.5645C49.1017 24.6696 49.2013 24.7609 49.3286 24.8384C49.4614 24.9159 49.6385 24.9878 49.8599 25.0542L52.1094 25.7017C52.3971 25.7847 52.6517 25.8732 52.8731 25.9673C53.0999 26.0558 53.2964 26.1637 53.4624 26.291C53.6284 26.4128 53.7695 26.5566 53.8857 26.7227C54.0075 26.8887 54.1043 27.0879 54.1763 27.3203C54.2482 27.5472 54.3008 27.8156 54.334 28.1255C54.3672 28.4354 54.3838 28.7923 54.3838 29.1963C54.3838 29.8271 54.3285 30.3695 54.2178 30.8232C54.1126 31.2715 53.9106 31.6395 53.6118 31.9272C53.313 32.2095 52.9007 32.417 52.375 32.5498C51.8548 32.6882 51.1797 32.7573 50.3496 32.7573C49.7077 32.7573 49.1737 32.7269 48.7476 32.666C48.327 32.6107 47.9839 32.547 47.7183 32.4751C47.4139 32.3921 47.1732 32.298 46.9961 32.1929V30.7319ZM56.5918 19.6006H58.5591V26.9385H59.854L62.1367 23.7427H64.3862L61.3979 27.8267L64.4028 32.5H62.1533L59.6216 28.5737H58.5591V32.5H56.5918V19.6006ZM65.7974 34.9985C65.8748 35.0096 65.9634 35.0179 66.063 35.0234C66.2345 35.04 66.4919 35.0483 66.835 35.0483C67.0231 35.0483 67.1864 35.029 67.3247 34.9902C67.4686 34.9515 67.5903 34.8879 67.6899 34.7993C67.7951 34.7108 67.8864 34.6001 67.9639 34.4673C68.0469 34.3345 68.1243 34.1712 68.1963 33.9775L68.7358 32.5H67.8892L64.8428 23.7427H67.0342L69.2837 30.7651H69.3501L71.6079 23.7427H73.7827L70.0308 34.3179C69.8758 34.7495 69.7153 35.112 69.5493 35.4053C69.3888 35.7041 69.2118 35.9448 69.0181 36.1274C68.8299 36.3101 68.6224 36.4429 68.3955 36.5259C68.1742 36.6089 67.9307 36.6504 67.665 36.6504C67.3607 36.6504 67.0923 36.6366 66.8599 36.6089C66.633 36.5812 66.4393 36.548 66.2788 36.5093C66.0962 36.465 65.9357 36.4152 65.7974 36.3599V34.9985ZM75.7832 25.3779H74.4883V23.7427H75.7832V21.8916L77.7505 21.4517V23.7427H79.9585V25.3779H77.7505V30.0845C77.7505 30.2892 77.7643 30.458 77.792 30.5908C77.8252 30.7236 77.8805 30.8315 77.958 30.9146C78.041 30.992 78.1545 31.0474 78.2983 31.0806C78.4478 31.1082 78.6387 31.1221 78.8711 31.1221C79.0869 31.1221 79.2806 31.1193 79.4521 31.1138C79.6292 31.1027 79.7786 31.0916 79.9004 31.0806C80.0443 31.0695 80.1715 31.0557 80.2822 31.0391V32.3506C80.0885 32.4281 79.881 32.4972 79.6597 32.5581C79.466 32.6079 79.2391 32.6522 78.979 32.6909C78.7189 32.7352 78.4339 32.7573 78.124 32.7573C77.6924 32.7573 77.3271 32.7158 77.0283 32.6328C76.735 32.5498 76.4943 32.4253 76.3062 32.2593C76.1235 32.0877 75.9907 31.8747 75.9077 31.6201C75.8247 31.36 75.7832 31.0584 75.7832 30.7153V25.3779ZM82.9551 25.3779H81.6602V23.7427H82.9551V21.8916L84.9224 21.4517V23.7427H87.1304V25.3779H84.9224V30.0845C84.9224 30.2892 84.9362 30.458 84.9639 30.5908C84.9971 30.7236 85.0524 30.8315 85.1299 30.9146C85.2129 30.992 85.3263 31.0474 85.4702 31.0806C85.6196 31.1082 85.8105 31.1221 86.043 31.1221C86.2588 31.1221 86.4525 31.1193 86.624 31.1138C86.8011 31.1027 86.9505 31.0916 87.0723 31.0806C87.2161 31.0695 87.3434 31.0557 87.4541 31.0391V32.3506C87.2604 32.4281 87.0529 32.4972 86.8315 32.5581C86.6379 32.6079 86.411 32.6522 86.1509 32.6909C85.8908 32.7352 85.6058 32.7573 85.2959 32.7573C84.8643 32.7573 84.499 32.7158 84.2002 32.6328C83.9069 32.5498 83.6662 32.4253 83.478 32.2593C83.2954 32.0877 83.1626 31.8747 83.0796 31.6201C82.9966 31.36 82.9551 31.0584 82.9551 30.7153V25.3779ZM88.915 28.0259C88.915 27.1128 89.034 26.363 89.272 25.7764C89.5099 25.1898 89.8254 24.7277 90.2183 24.3901C90.6112 24.0526 91.0594 23.8201 91.563 23.6929C92.0666 23.5601 92.584 23.4937 93.1152 23.4937C93.7848 23.4937 94.3382 23.585 94.7754 23.7676C95.2181 23.9502 95.5695 24.2075 95.8296 24.5396C96.0897 24.866 96.2723 25.259 96.3774 25.7183C96.4826 26.1776 96.5352 26.6839 96.5352 27.2373C96.5352 27.4974 96.5241 27.7658 96.502 28.0425C96.4854 28.3192 96.4604 28.6042 96.4272 28.8975H90.9404C90.946 29.2904 90.9875 29.6224 91.0649 29.8936C91.1479 30.1592 91.2808 30.3778 91.4634 30.5493C91.6515 30.7153 91.8978 30.8371 92.2021 30.9146C92.512 30.9865 92.8966 31.0225 93.356 31.0225C93.7433 31.0225 94.1058 31.0142 94.4434 30.9976C94.7809 30.9754 95.077 30.9505 95.3315 30.9229C95.6304 30.8952 95.9015 30.8592 96.145 30.8149V32.1929C95.8628 32.298 95.5557 32.3921 95.2236 32.4751C94.9414 32.547 94.6121 32.6107 94.2358 32.666C93.8595 32.7269 93.4583 32.7573 93.0322 32.7573C92.3792 32.7573 91.7982 32.6743 91.2891 32.5083C90.7799 32.3478 90.3483 32.0822 89.9941 31.7114C89.6455 31.3351 89.3771 30.8454 89.189 30.2422C89.0063 29.639 88.915 28.9002 88.915 28.0259ZM94.7173 27.4199V27.1045C94.7173 26.7725 94.6951 26.4847 94.6509 26.2412C94.6121 25.9922 94.5291 25.7874 94.4019 25.627C94.2746 25.4665 94.0947 25.3475 93.8623 25.27C93.6299 25.1925 93.32 25.1538 92.9326 25.1538C92.5176 25.1538 92.1772 25.2036 91.9116 25.3032C91.6515 25.3973 91.4468 25.5412 91.2974 25.7349C91.1535 25.923 91.0539 26.1582 90.9985 26.4404C90.9487 26.7227 90.9238 27.0492 90.9238 27.4199H94.7173ZM98.5273 23.7427H100.229L100.345 24.6973C100.777 24.415 101.261 24.1826 101.798 24C102.335 23.8174 102.938 23.7095 103.607 23.6763L103.591 25.7183C102.899 25.7293 102.299 25.7653 101.79 25.8262C101.286 25.8815 100.854 25.9811 100.495 26.125V32.5H98.5273V23.7427ZM104.703 28.0259C104.703 27.1128 104.822 26.363 105.06 25.7764C105.298 25.1898 105.613 24.7277 106.006 24.3901C106.399 24.0526 106.848 23.8201 107.351 23.6929C107.855 23.5601 108.372 23.4937 108.903 23.4937C109.573 23.4937 110.126 23.585 110.563 23.7676C111.006 23.9502 111.358 24.2075 111.618 24.5396C111.878 24.866 112.06 25.259 112.165 25.7183C112.271 26.1776 112.323 26.6839 112.323 27.2373C112.323 27.4974 112.312 27.7658 112.29 28.0425C112.273 28.3192 112.249 28.6042 112.215 28.8975H106.729C106.734 29.2904 106.776 29.6224 106.853 29.8936C106.936 30.1592 107.069 30.3778 107.251 30.5493C107.44 30.7153 107.686 30.8371 107.99 30.9146C108.3 30.9865 108.685 31.0225 109.144 31.0225C109.531 31.0225 109.894 31.0142 110.231 30.9976C110.569 30.9754 110.865 30.9505 111.12 30.9229C111.418 30.8952 111.69 30.8592 111.933 30.8149V32.1929C111.651 32.298 111.344 32.3921 111.012 32.4751C110.73 32.547 110.4 32.6107 110.024 32.666C109.648 32.7269 109.246 32.7573 108.82 32.7573C108.167 32.7573 107.586 32.6743 107.077 32.5083C106.568 32.3478 106.136 32.0822 105.782 31.7114C105.434 31.3351 105.165 30.8454 104.977 30.2422C104.794 29.639 104.703 28.9002 104.703 28.0259ZM110.505 27.4199V27.1045C110.505 26.7725 110.483 26.4847 110.439 26.2412C110.4 25.9922 110.317 25.7874 110.19 25.627C110.063 25.4665 109.883 25.3475 109.65 25.27C109.418 25.1925 109.108 25.1538 108.721 25.1538C108.306 25.1538 107.965 25.2036 107.7 25.3032C107.44 25.3973 107.235 25.5412 107.085 25.7349C106.942 25.923 106.842 26.1582 106.787 26.4404C106.737 26.7227 106.712 27.0492 106.712 27.4199H110.505ZM114.315 23.7427H115.76L116.001 24.3901C116.305 24.2241 116.637 24.0747 116.997 23.9419C117.306 23.8312 117.663 23.7288 118.067 23.6348C118.471 23.5407 118.903 23.4937 119.362 23.4937C120.226 23.4937 120.862 23.7205 121.271 24.1743C121.686 24.6226 121.894 25.3281 121.894 26.291V32.5H119.927V26.5317C119.927 26.3049 119.91 26.1112 119.877 25.9507C119.849 25.7847 119.786 25.6519 119.686 25.5522C119.586 25.4471 119.443 25.3696 119.254 25.3198C119.066 25.27 118.815 25.2451 118.499 25.2451C118.167 25.2451 117.865 25.2673 117.594 25.3115C117.323 25.3503 117.091 25.3918 116.897 25.436C116.67 25.4914 116.465 25.5522 116.283 25.6187V32.5H114.315V23.7427Z" fill="#070E28"/>
<defs>
<clipPath id="clip0_134_315">
<rect width="38" height="38" fill="white"/>
</clipPath>
</defs>
</svg>
