<svg width="38" height="38" viewBox="0 0 38 38" fill="none" xmlns="http://www.w3.org/2000/svg">
<g clip-path="url(#clip0_7_47)">
<path d="M12.2115 0C5.46201 0.0761905 0 5.44762 0 12.0762C0 18.7048 5.46201 24.0762 12.2115 24.1524V0Z" fill="#070E28"/>
<path d="M33.767 3.80952V11.9238L14.2013 11.9238V0L29.8655 0C32.0113 0 33.767 1.71429 33.767 3.80952Z" fill="#070E28"/>
<path d="M25.7885 38C32.538 37.9238 38 32.5524 38 25.9238C38 19.2952 32.538 13.9238 25.7885 13.8476V38Z" fill="#070E28"/>
<path d="M4.23303 34.1905L4.23303 26.0762H23.7987V38H8.13447C5.96917 38 4.23303 36.2857 4.23303 34.1905Z" fill="#070E28"/>
</g>
<defs>
<clipPath id="clip0_7_47">
<rect width="38" height="38" fill="white"/>
</clipPath>
</defs>
</svg>
