<?xml version="1.0" encoding="UTF-8"?>
<svg id="Layer_2" data-name="Layer 2" xmlns="http://www.w3.org/2000/svg" viewBox="0 0 28.18 27.54">
  <g id="Layer_1-2" data-name="Layer 1">
    <g>
      <path d="M13.72,.56s.05,.05,.08,.07c.02,.02,.04,.05,.07,.07,.43,.39,.9,.6,1.3,.6h0c.4,0,.74-.2,1-.59,.14-.21,.26-.46,.33-.71h-.01c-.07,.25-.18,.5-.33,.71-.26,.38-.6,.58-.99,.58h0c-.4,0-.86-.21-1.29-.6-.02-.02-.04-.04-.07-.07-.02-.03-.05-.05-.08-.08-.19-.17-.4-.33-.61-.48-.03-.02-.06-.04-.09-.07h-.02s.07,.05,.1,.08c.2,.15,.41,.31,.6,.48Z"/>
      <path d="M.86,1.81c.28-.26,.57-.53,.76-.92,.09-.2,.19-.51,.23-.89h-.01c-.04,.38-.13,.69-.23,.89-.18,.38-.47,.65-.76,.92C.52,2.11,.18,2.42,.01,2.92c0,.01-.01,.03-.01,.04v.04s.02-.06,.03-.08c.17-.49,.5-.81,.83-1.11Z"/>
      <path d="M15.07,.69h0c.14,0,.27-.05,.39-.14,.12-.09,.17-.18,.23-.27,.02-.04,.05-.08,.08-.12,.02-.05,.04-.11,.06-.17h-.01c-.02,.05-.04,.11-.06,.16-.03,.04-.06,.08-.08,.12-.06,.09-.12,.18-.23,.26-.12,.09-.25,.14-.39,.14h0c-.36,0-.71-.32-1.02-.61-.03-.03-.05-.05-.08-.08h-.02s.06,.06,.09,.08c.31,.29,.66,.61,1.03,.61Z"/>
      <path d="M.24,4.1c.07-.34,.13-.66,.22-.88,.16-.38,.49-.71,.83-1.05,.21-.21,.44-.43,.62-.67,.23-.3,.39-.56,.52-.86,.08-.18,.14-.39,.21-.59,0-.02,.01-.04,.02-.05h-.01s-.01,.03-.02,.05c-.06,.2-.13,.41-.21,.59-.13,.3-.29,.56-.52,.86-.19,.24-.41,.46-.62,.66-.35,.34-.68,.67-.84,1.06-.09,.23-.16,.55-.22,.89-.06,.33-.13,.66-.22,.91,0,0,0,0,0,0v.03s0-.02,.01-.04c.1-.25,.16-.59,.22-.91Z"/>
      <path d="M1.3,8.31c.45,.18,1.02,.41,1.23,.87,.01,.25-.07,.46-.17,.69-.13,.32-.28,.67-.2,1.24,.06,.43,.31,.7,.6,1.02,.12,.13,.24,.27,.36,.42,.31,.4,.51,.86,.68,1.25,.16,.39,.29,.7,.72,.8,.26,.06,.61,.1,.86,.13,.14,.01,.26,.02,.37,.02,.19,0,.35-.02,.49-.06,.29-.09,.47-.32,.71-.62,.07-.09,.14-.18,.22-.28,.05-.07,.13-.14,.2-.22,.16-.16,.33-.33,.37-.46,.02-.05,.01-.1,0-.15,0-.04,0-.09,0-.14h0s0,0,0,0c-.16-.2-.34-.37-.53-.53-.31-.27-.6-.53-.71-.95-.06-.22-.04-.46,.06-.73,.11-.28,.36-.59,.71-.87,.16-.13,.33-.26,.5-.4,.82-.64,1.74-1.36,2.25-1.98h0c.02-.08,.01-.17-.01-.27-.07-.26-.27-.58-.57-.86-.28-.27-.6-.47-.86-.54-.02,0-.06-.02-.1-.03-.34-.08-.69-.02-1.03,.03-.29,.04-.57,.09-.84,.05-.58-.08-1.01-.47-1.15-1.07-.2-.79,.34-1.29,.87-1.78,.38-.36,.78-.73,.89-1.21,.1-.46-.03-.95-.12-1.28-.03-.13-.08-.26-.12-.39h-.01c.05,.13,.09,.26,.12,.4,.08,.33,.21,.82,.12,1.27-.1,.48-.5,.85-.89,1.21-.52,.49-1.07,.99-.87,1.79,.15,.61,.58,1.01,1.17,1.08,.27,.04,.55,0,.85-.05,.34-.05,.69-.1,1.03-.03,.04,0,.08,.02,.1,.03,.51,.14,1.27,.82,1.41,1.39,.02,.1,.03,.18,.01,.26-.5,.63-1.43,1.35-2.24,1.98-.18,.14-.35,.27-.5,.4-.35,.28-.61,.59-.71,.88-.1,.27-.12,.51-.07,.73,.11,.42,.41,.68,.72,.96,.18,.16,.37,.32,.52,.52,0,.05,0,.1,0,.14,0,.05,0,.1,0,.15-.04,.13-.21,.3-.37,.46-.08,.08-.15,.15-.2,.22-.08,.1-.15,.19-.22,.28-.23,.3-.41,.53-.7,.62-.22,.06-.5,.08-.86,.04-.25-.03-.6-.07-.86-.13-.42-.1-.55-.41-.71-.79-.16-.39-.37-.85-.68-1.25-.12-.15-.24-.29-.36-.42-.29-.31-.54-.59-.6-1.01-.08-.56,.06-.91,.2-1.23,.09-.23,.18-.44,.17-.7h0c-.22-.47-.79-.69-1.24-.88-.12-.05-.25-.1-.39-.13-.32-.07-.63-.11-.92-.12H0c.29,.02,.59,.06,.91,.13,.14,.03,.27,.08,.39,.13Z"/>
      <path d="M7.93,.38c.04,.13,.08,.27,.12,.4,.09,.29,.17,.56,.2,.81,.02,.17,.02,.36,0,.48-.07,.38-.32,.67-.57,.96-.28,.33-.57,.67-.6,1.14,.03,.42,.5,.48,1,.55,.09,.01,.19,.02,.28,.04,.37,.06,.79,.18,1.22,.34,.15,.06,.3,.13,.44,.2,.27,.13,.52,.26,.82,.29,.04,0,.08,0,.12,0,.2,0,.38-.06,.53-.11,.15-.05,.28-.11,.41-.17,.27-.12,.53-.23,.93-.27,.07,0,.14-.01,.21-.01,.43,0,.79,.11,1.14,.22,.3,.1,.59,.18,.88,.18,.06,0,.12,0,.17-.01,.45-.06,.79-.29,1.05-.71,.23-.37,.36-.84,.47-1.3,.03-.13,.09-.38,.11-.56,.02-.17,0-.29-.08-.38-.14-.16-.41-.17-.72-.18-.14,0-.29,0-.44-.03-.62-.08-1.14-.16-1.72-.4-.47-.2-.95-.44-1.26-.62-.53-.29-1.13-.65-1.55-1.25h-.02c.42,.61,1.03,.97,1.56,1.26,.31,.17,.79,.42,1.26,.62,.58,.24,1.1,.32,1.72,.4,.15,.02,.3,.02,.44,.03,.31,0,.58,.02,.72,.17,.07,.08,.1,.2,.08,.37-.02,.18-.08,.43-.11,.56-.22,.9-.53,1.88-1.52,2-.06,0-.11,0-.17,0-.29,0-.58-.09-.88-.18-.35-.11-.71-.22-1.14-.22-.07,0-.14,0-.21,0-.4,.04-.66,.15-.93,.27-.13,.06-.26,.11-.41,.17-.15,.05-.33,.11-.52,.11-.04,0-.08,0-.11,0-.29-.03-.55-.16-.82-.29-.14-.07-.29-.14-.44-.2-.43-.16-.86-.28-1.22-.34-.09-.01-.19-.03-.28-.04-.5-.06-.96-.12-.99-.53,.02-.46,.31-.8,.59-1.13,.25-.29,.5-.58,.57-.96,.02-.13,.02-.31,0-.49-.03-.25-.12-.52-.2-.81-.04-.13-.08-.27-.12-.4-.02-.09-.05-.18-.07-.26-.01-.04-.02-.08-.03-.11h-.01s.02,.08,.03,.12c.03,.09,.05,.17,.07,.26Z"/>
      <path d="M.91,.87c.13-.21,.25-.45,.25-.87h-.01c0,.41-.12,.66-.25,.86-.17,.26-.41,.41-.67,.58-.08,.05-.16,.1-.23,.15v.02c.08-.05,.16-.11,.24-.16,.26-.17,.5-.32,.67-.58Z"/>
      <path d="M8.78,1.17c.08,.18,.16,.36,.19,.55,.08,.52-.19,.86-.45,1.19-.18,.22-.35,.43-.4,.69-.01,.07,0,.11,0,.16,0,.03,0,.06,0,.1h0c.07,.19,.26,.32,.42,.39,.56,.28,1.47,.41,2.14,.5,.1,.01,.2,.02,.3,.02h0c.26,0,.5-.04,.75-.09,.27-.05,.55-.1,.88-.1,.09,0,.17,0,.26,.01,.02,0,.07,0,.13,0,.09,0,.21,.01,.29,.02,.27,.02,.49,.07,.69,.12,.28,.06,.54,.12,.92,.12,.04,0,.08,0,.12,0,.31-.05,.59-.37,.7-.8,.09-.36,.07-.83-.27-1.1-.4-.31-1.56-.58-2.18-.63-.13-.01-.24-.01-.35-.01-.12,0-.24,0-.4-.02-.43-.04-.78-.21-1.19-.57-.5-.44-.77-.79-1.16-1.46-.04-.07-.08-.16-.12-.26h-.01c.04,.1,.08,.2,.12,.27,.39,.68,.66,1.02,1.16,1.47,.4,.36,.76,.53,1.19,.57,.16,.01,.28,.02,.4,.02,.11,0,.22,0,.35,.01,.62,.05,1.77,.32,2.17,.63,.33,.26,.35,.73,.26,1.09-.11,.43-.39,.75-.69,.79-.04,0-.08,0-.12,0-.38,0-.64-.06-.92-.12-.21-.05-.42-.09-.7-.12-.08,0-.2-.01-.29-.02-.06,0-.11,0-.13,0-.09,0-.17-.01-.26-.01-.33,0-.61,.05-.88,.1-.25,.05-.49,.09-.75,.09h0c-.1,0-.2,0-.3-.02-.66-.1-1.58-.23-2.14-.5-.15-.07-.35-.2-.41-.38,0-.04,0-.07,0-.1,0-.05,0-.09,0-.15,.05-.25,.22-.47,.39-.69,.26-.33,.53-.67,.45-1.2-.03-.19-.11-.38-.19-.55-.03-.07-.06-.14-.09-.21-.1-.25-.22-.6-.3-.95h-.01c.08,.36,.2,.7,.3,.96,.03,.07,.06,.14,.09,.21Z"/>
      <path d="M1.35,6.44c.18-.2,.34-.42,.51-.64,.27-.36,.55-.73,.91-1.04,.03-.02,.05-.05,.07-.07,.02-.02,.04-.05,.07-.07,.23-.21,.5-.37,.76-.53,.18-.11,.37-.23,.54-.35,.14-.1,.28-.21,.41-.31,.2-.16,.41-.32,.63-.47,.1-.07,.21-.14,.32-.21,.54-.35,1.16-.74,1.25-1.45,.05-.38-.05-.86-.26-1.29h-.01c.21,.43,.31,.92,.26,1.29-.09,.7-.71,1.09-1.25,1.44-.11,.07-.21,.14-.32,.21-.21,.15-.42,.31-.63,.47-.13,.1-.27,.21-.41,.31-.17,.13-.36,.24-.54,.35-.26,.16-.53,.33-.76,.53-.03,.02-.05,.05-.07,.07-.02,.02-.05,.05-.07,.07-.36,.31-.64,.68-.91,1.04-.17,.23-.33,.44-.51,.64-.36,.4-.83,.67-1.34,.78H0c.52-.1,.99-.37,1.35-.77Z"/>
      <path d="M.55,5.93c.17-.25,.18-.72,.16-1.09-.01-.3,0-.88,.19-1.36,.15-.37,.52-.69,.87-1.01,.05-.05,.11-.1,.16-.14,.7-.64,1.05-1.22,1.36-1.89,.03-.06,.05-.12,.07-.18,.03-.07,.06-.15,.09-.22,0-.01,.01-.03,.02-.04h-.01s-.01,.02-.02,.04c-.04,.07-.06,.15-.09,.22-.02,.06-.04,.12-.07,.17-.31,.67-.65,1.24-1.36,1.88-.05,.05-.11,.09-.16,.14-.35,.32-.72,.64-.87,1.01-.2,.48-.2,1.06-.19,1.37,.02,.37,.02,.83-.16,1.09-.12,.18-.32,.31-.54,.42H0c.22-.1,.42-.23,.55-.41Z"/>
      <path d="M.19,.36c.08-.09,.12-.22,.12-.36h-.01c0,.13-.04,.27-.12,.35-.06,.06-.12,.09-.19,.09H0s0,.01,0,.01H0c.07,0,.14-.03,.19-.09Z"/>
      <path d="M4.21,.21c-.19,.22-.32,.52-.45,.81-.02,.04-.04,.09-.06,.13-.19,.41-.43,.93-.69,1.28-.14,.19-.37,.33-.62,.47-.35,.21-.71,.42-.85,.81-.05,.14-.05,.3,0,.49,.05,.11,.13,.16,.25,.16h0c.19,0,.42-.15,.52-.23,.19-.16,.35-.38,.51-.59,.08-.11,.17-.23,.26-.34,.04-.05,.19-.22,.32-.3,.3-.18,.68-.31,1.09-.45,.56-.2,1.14-.4,1.51-.73,.19-.17,.31-.45,.32-.75,0-.32-.1-.63-.32-.86-.04-.04-.08-.08-.12-.12h-.02s.09,.08,.13,.12c.21,.23,.32,.53,.31,.85,0,.3-.12,.57-.31,.74-.36,.33-.94,.53-1.5,.73-.41,.14-.79,.28-1.09,.45-.13,.08-.28,.25-.32,.3-.09,.11-.18,.22-.26,.34-.16,.21-.32,.43-.5,.58-.09,.08-.32,.23-.51,.23-.11,0-.19-.05-.24-.16-.05-.19-.05-.34,0-.48,.14-.39,.5-.6,.84-.8,.25-.15,.48-.29,.62-.48,.26-.35,.5-.87,.69-1.28,.02-.04,.04-.09,.06-.13,.13-.29,.27-.58,.45-.8,.07-.08,.15-.15,.24-.22h-.02c-.08,.06-.16,.13-.23,.21Z"/>
      <path d="M9.37,3.55h0s.04,.06,.05,.09h0s0,.01,0,.01c.1,.09,.24,.14,.4,.14h0c.23,0,.46-.1,.58-.24,.07-.09,.09-.19,.06-.29-.05-.19-.23-.26-.44-.31h0s0,0,0,0c-.34,.05-.7,.26-.66,.6h0Zm.66-.59c.2,.05,.38,.11,.42,.3,.02,.1,0,.2-.06,.28-.11,.14-.34,.24-.57,.24h0c-.16,0-.3-.05-.39-.14h0s-.03-.07-.05-.1c-.03-.38,.41-.55,.65-.58Z"/>
      <path d="M12.91,3.77h0s0,0,0,0c.21,.13,.56,.22,.86,.22h0c.2,0,.55-.04,.65-.31h0c0-.1-.03-.18-.1-.25-.13-.14-.4-.22-.69-.22-.37,0-.77,.14-.78,.46h0s0,0,0,0c.02,.02,.04,.06,.05,.09Zm.72-.54c.29,0,.55,.08,.68,.22,.07,.07,.1,.15,.1,.24-.09,.26-.44,.3-.63,.3h0c-.3,0-.65-.09-.86-.22h0s-.03-.07-.05-.1c0-.3,.4-.44,.76-.44Z"/>
      <path d="M3.61,10.01c-.07,.32-.15,.65-.12,1.14,.25,.86,.54,1.5,.89,1.98,.08,.11,.18,.24,.31,.34,.18,.15,.44,.23,.69,.23h0c.25,0,.47-.09,.6-.25,.15-.17,.21-.43,.17-.75-.02-.18-.09-.37-.15-.55-.06-.18-.13-.37-.15-.55-.09-.7,.2-1.42,.8-1.93,.25-.22,.51-.4,.76-.57,.27-.19,.55-.38,.81-.62,.4-.36,.86-.78,.93-1.4h0c-.05-.3-.14-.6-.48-.82-.19-.12-.4-.18-.66-.18-.22,0-.45,.04-.7,.09-.26,.05-.53,.1-.82,.1-.07,0-.14,0-.2,0-.13-.01-.3-.05-.48-.1-.24-.06-.49-.12-.68-.12-.04,0-.08,0-.11,0-.26,.04-.54,.27-.76,.46-.36,.32-.69,.66-.75,.94-.02,.11-.01,.28,0,.41,.02,.19,.06,.35,.1,.51,.07,.28,.14,.57,.11,1.03-.02,.22-.06,.42-.11,.62Zm.02-1.65c-.04-.16-.08-.32-.1-.51-.01-.13-.02-.3,0-.4,.05-.27,.39-.61,.74-.93,.21-.19,.49-.42,.75-.46,.03,0,.07,0,.11,0,.19,0,.44,.06,.68,.12,.18,.04,.35,.08,.48,.1,.07,0,.13,0,.21,0,.28,0,.56-.05,.82-.1,.24-.04,.47-.09,.7-.09,.26,0,.47,.06,.66,.18,.33,.21,.42,.51,.47,.81-.08,.62-.53,1.03-.93,1.39-.27,.24-.54,.43-.81,.62-.25,.17-.51,.35-.76,.57-.6,.51-.9,1.24-.8,1.95,.02,.18,.09,.37,.16,.55,.06,.18,.13,.37,.15,.55,.04,.32-.01,.57-.17,.74-.14,.16-.35,.24-.59,.24h0c-.25,0-.5-.09-.68-.23-.12-.1-.23-.23-.31-.34-.35-.47-.64-1.12-.89-1.97-.03-.49,.05-.82,.12-1.13,.05-.2,.09-.39,.11-.62,.04-.46-.04-.75-.11-1.03Z"/>
      <path d="M4.42,9.98c.01,.06,.02,.12,.03,.18,.04,.22,.08,.48,.31,.6h0s0,0,0,0c.28-.02,.46-.27,.64-.53,.07-.09,.14-.19,.21-.28,.41-.48,.88-.79,1.33-1.1,.32-.22,.62-.42,.88-.67,.08-.04,.14-.12,.2-.19,.04-.05,.08-.11,.14-.15,.24-.3,.32-.66,.2-.9-.07-.15-.26-.34-.72-.34-.06,0-.13,0-.2,0-.15,.01-.32,.05-.5,.08-.2,.04-.42,.08-.65,.1-.05,0-.09,0-.14,.01-.61,.06-.97,.1-1.34,.53-.26,.31-.4,.69-.44,1.2-.02,.33,0,.68,.01,1,0,.16,.02,.31,.02,.44Zm-.02-1.44c.04-.51,.18-.88,.43-1.19,.36-.43,.71-.46,1.33-.53,.04,0,.09,0,.14-.01,.23-.02,.45-.07,.65-.1,.18-.03,.35-.06,.5-.08,.07,0,.13-.01,.19-.01,.46,0,.64,.18,.71,.33,.11,.24,.04,.59-.2,.89-.06,.04-.1,.1-.14,.15-.06,.07-.11,.14-.19,.18h0c-.26,.25-.56,.45-.88,.67-.45,.31-.92,.62-1.33,1.1-.07,.08-.14,.18-.21,.28-.19,.26-.36,.51-.63,.53-.22-.12-.26-.36-.3-.59-.01-.06-.02-.12-.03-.18,0-.13-.01-.28-.02-.44-.02-.31-.04-.67-.01-1Z"/>
      <path d="M12.87,8.42c.1,.93,.19,1.8,.92,2.43,.49,.42,1.27,.87,2.03,.87h0c.46,0,.84-.17,1.12-.51,.25-.29,.37-.63,.52-1.03,.02-.04,.03-.09,.05-.13,.03-.08,.06-.15,.09-.23,.16-.43,.32-.83,.35-1.16,.08-.74-.18-1.03-.51-1.32-.52-.45-1.19-.48-1.9-.52-.17,0-.37-.03-.58-.05-.33-.03-.71-.06-1.02-.06-.34,0-.56,.04-.68,.12-.5,.33-.44,1.15-.4,1.48v.11Zm.4-1.57c.12-.08,.34-.12,.67-.12,.31,0,.69,.03,1.02,.06,.21,.02,.41,.04,.58,.04,.71,.04,1.38,.07,1.89,.51,.33,.28,.59,.58,.51,1.31-.04,.33-.19,.73-.35,1.16-.03,.08-.06,.15-.08,.23-.02,.04-.03,.09-.05,.13-.15,.39-.27,.73-.52,1.02-.28,.33-.65,.5-1.11,.5-.75,0-1.53-.45-2.02-.87-.72-.62-.81-1.5-.91-2.42v-.11c-.06-.33-.12-1.13,.38-1.46Z"/>
      <path d="M13.56,8.57c.09,.8,.16,1.49,.81,2,.3,.24,.84,.52,1.38,.52h0c.27,0,.49-.07,.67-.21,.51-.39,.73-1.21,.76-1.78,.04-.67-.21-1.25-.66-1.57-.41-.29-.94-.32-1.5-.35-.12,0-.24-.01-.36-.01-.35,0-.78,.04-1,.38-.13,.26-.12,.56-.11,.86,0,.05,0,.1,0,.16Zm.12-1c.22-.33,.64-.38,.99-.38,.12,0,.24,0,.36,.01,.55,.03,1.08,.06,1.49,.34,.45,.31,.69,.89,.65,1.56-.03,.58-.25,1.39-.76,1.78-.18,.14-.4,.21-.66,.21h0c-.53,0-1.08-.28-1.38-.52-.64-.51-.71-1.17-.8-2,0-.05,0-.1,0-.15,0-.29-.01-.59,.11-.85Z"/>
      <path d="M5.59,8.44h0s.04,.03,.05,.05c.02,.02,.04,.04,.07,.06h0s0,0,0,0c.37-.07,.79-.26,1.1-.5,.12-.1,.26-.23,.29-.39h0s0,0,0,0c-.02-.02-.04-.05-.06-.07-.02-.02-.03-.03-.05-.05h0s0,0,0,0c-.05,0-.11,0-.17,0-.32,0-.76,.1-1.03,.37-.14,.15-.21,.33-.21,.54h0Zm.22-.54c.26-.27,.7-.37,1.02-.37,.06,0,.12,0,.17,0,.01,.02,.03,.03,.04,.05,.02,.02,.04,.04,.06,.06-.03,.16-.17,.29-.29,.38-.31,.24-.72,.43-1.09,.5-.02-.01-.04-.03-.06-.05-.02-.02-.03-.04-.05-.05,0-.21,.06-.38,.2-.53Z"/>
      <path d="M14.92,10.21c.22,.14,.46,.22,.68,.22h0c.3,0,.54-.13,.72-.37,.41-.57,.22-1.63-.36-2.08-.16-.12-.43-.27-.82-.27-.09,0-.19,0-.28,.02-.41,.07-.62,.39-.62,.94,0,.41,.1,1.16,.68,1.54Zm-.06-2.46c.09-.02,.19-.02,.28-.02,.39,0,.66,.14,.81,.26,.28,.21,.48,.57,.55,.99,.07,.41,0,.81-.19,1.07-.17,.24-.42,.36-.71,.36h0c-.22,0-.46-.08-.68-.21-.57-.37-.67-1.12-.67-1.53,0-.54,.2-.86,.61-.93Z"/>
      <path d="M1.64,13.86c.05,.1,.11,.19,.17,.27h0c.08,.11,.23,.3,.43,.27,.22-.03,.5-.29,.45-.67-.04-.3-.24-.52-.64-.7-.03-.01-.05-.02-.08-.03-.19-.08-.37-.16-.45-.34-.09-.36-.1-.84-.12-1.36-.01-.43-.03-.87-.09-1.24-.11-.73-.48-1.16-1.13-1.32-.06-.01-.12-.03-.18-.04H0c.06,.02,.12,.04,.18,.05,.65,.16,1.02,.59,1.12,1.31,.06,.38,.07,.82,.09,1.24,.02,.51,.04,1,.12,1.36,.09,.19,.27,.26,.46,.34,.03,.01,.05,.02,.08,.03,.39,.17,.59,.39,.63,.69,.05,.37-.23,.62-.44,.65-.19,.03-.33-.15-.42-.26h0c-.06-.08-.11-.17-.17-.27-.17-.31-.34-.62-.84-.54-.24,.04-.5,.16-.81,.38v.02c.31-.22,.58-.35,.81-.39,.49-.08,.66,.23,.83,.53Z"/>
      <path d="M.32,12.12c.29-.32,.44-.79,.42-1.29-.02-.49-.2-.93-.49-1.19-.08-.06-.17-.1-.26-.12H0c.09,.04,.17,.08,.25,.13,.28,.26,.46,.7,.48,1.18,.02,.5-.13,.97-.42,1.29-.1,.1-.2,.19-.32,.27v.02c.12-.08,.23-.17,.32-.28Z"/>
      <path d="M12.06,12.21c-.01-.09-.05-.19-.09-.27-.28-.69-.92-1.4-1.39-1.81-.32-.28-.59-.44-.79-.48-.04,0-.09-.01-.14-.01-.56,0-1.25,.57-1.29,1.07,0,.02,0,.05,.01,.07,0,.04,.02,.07,.01,.11h0s0,0,0,0c.2,.47,.43,.91,.67,1.32,.11,.18,.22,.36,.37,.51,.36,.36,.98,.61,1.51,.61h0c.29,0,.54-.07,.73-.22,.32-.24,.45-.54,.4-.89Zm-1.12,1.09h0c-.53,0-1.14-.25-1.5-.6-.15-.15-.26-.32-.37-.5-.25-.41-.47-.85-.67-1.31,0-.04,0-.08-.02-.12,0-.02-.01-.05-.01-.07,.04-.49,.73-1.06,1.28-1.06,.05,0,.1,0,.14,.01,.2,.04,.47,.2,.79,.48,.47,.41,1.11,1.12,1.39,1.81,.03,.08,.07,.19,.09,.27,.05,.34-.08,.64-.39,.88-.19,.14-.43,.21-.72,.21Z"/>
      <path d="M10.83,11.11c-.28-.26-.62-.44-.88-.49-.05,0-.1-.01-.14-.01-.16,0-.29,.05-.39,.15-.11,.12-.17,.3-.16,.51,.11,.49,.23,.89,.58,1.17,.22,.18,.55,.3,.85,.3h0c.36,0,.61-.17,.68-.45,.02-.09,.02-.21,0-.29-.04-.29-.24-.61-.55-.89Zm.53,1.18c-.07,.28-.32,.44-.67,.44h0c-.3,0-.63-.12-.84-.29-.34-.28-.46-.68-.57-1.16,0-.21,.05-.39,.16-.5,.09-.1,.22-.14,.38-.14,.04,0,.09,0,.14,.01,.54,.09,1.33,.76,1.42,1.36,.01,.08,.02,.2,0,.29Z"/>
      <path d="M13.98,13.34h0s0,0,0,0c-.04,0-.07,0-.1,0-.08,0-.15,.01-.23,.03-.41,.12-.83,.48-.97,.83-.1,.25-.06,.52-.02,.79,.04,.25,.07,.48,0,.68-.11,.31-.39,.51-.66,.7-.29,.2-.59,.41-.66,.76-.04,.25,.02,.48,.18,.67,.23,.27,.65,.45,1.08,.45h0c.28,0,.52-.07,.7-.21,.14-.11,.24-.26,.35-.42l.02-.03c.1-.2,.14-.45,.17-.71,.03-.23,.07-.46,.15-.7,.05-.14,.1-.25,.15-.36,.15-.34,.28-.64,.22-1.36-.04-.42-.11-.92-.37-1.13Zm.14,2.48c-.05,.11-.1,.23-.15,.37-.08,.23-.11,.47-.15,.7-.04,.26-.07,.51-.17,.71v.02c-.12,.16-.22,.3-.36,.41-.18,.14-.42,.21-.69,.21-.42,0-.84-.18-1.07-.45-.16-.19-.22-.42-.18-.66,.07-.34,.36-.54,.66-.75,.28-.19,.56-.39,.67-.71,.07-.21,.04-.44,0-.69-.04-.27-.08-.54,.02-.79,.14-.35,.55-.71,.96-.82,.08-.02,.15-.03,.22-.03,.03,0,.07,0,.1,0,.26,.21,.33,.71,.37,1.12,.06,.72-.07,1.02-.22,1.36Z"/>
      <path d="M1.96,15.93c-.06-.05-.13-.08-.21-.08-.13,0-.28,.08-.4,.22-.15,.18-.23,.4-.21,.57,.06,.28,.31,.43,.53,.43h0c.15,0,.29-.07,.38-.19,.18-.25,.13-.76-.09-.95Zm.08,.94c-.09,.12-.22,.18-.37,.18h0c-.21,0-.46-.14-.52-.41-.02-.16,.06-.38,.21-.56,.12-.14,.26-.22,.39-.22,.07,0,.14,.03,.2,.08,.22,.19,.26,.69,.09,.93Z"/>
      <path d="M6.72,17.65s-.02-.04-.03-.06h0s0,0,0,0c-.05-.04-.11-.06-.17-.06-.09,0-.19,.04-.26,.12-.06,.07-.1,.16-.09,.24h0c.05,.09,.12,.14,.22,.14h0c.15,0,.34-.13,.36-.31h0s-.02-.05-.03-.07Zm-.33,.37h0c-.09,0-.17-.05-.21-.13,0-.08,.02-.17,.08-.23,.07-.07,.16-.12,.25-.12,.06,0,.11,.02,.16,.05,0,.02,.02,.04,.03,.06,.01,.02,.02,.04,.03,.07-.02,.17-.19,.3-.34,.3Z"/>
      <path d="M24.35,.24c.32,.15,.69,.17,.99,.04,.15-.06,.29-.16,.38-.28h-.02c-.1,.12-.22,.21-.37,.27-.3,.13-.67,.11-.98-.04-.1-.05-.2-.13-.29-.23h-.02c.09,.11,.2,.19,.3,.24Z"/>
      <path d="M13.16,.78c.12,.09,.24,.18,.35,.27,.27,.21,.53,.42,.82,.51,.32,.16,.62,.24,.92,.24,.24,0,.47-.05,.69-.16,.64-.32,1-1.03,1.14-1.63h-.01c-.14,.6-.5,1.3-1.14,1.62-.48,.24-1.01,.21-1.6-.07-.28-.09-.54-.3-.82-.51-.11-.09-.23-.18-.35-.27-.13-.09-.27-.19-.4-.27-.24-.16-.48-.32-.69-.49h-.02c.21,.18,.46,.34,.7,.5,.13,.09,.27,.18,.4,.27Z"/>
      <path d="M17.78,1.02c.09,.21,.28,.31,.58,.31,.16,0,.32-.03,.45-.05h0s.06,0,.09,0c.12,0,.25,.04,.37,.07,.06,.02,.13,.04,.19,.05,.05,.01,.1,.02,.15,.03,.21,.04,.42,.08,.61,.17,.08,.04,.15,.07,.23,.1,.38,.16,.77,.33,1.02,.66,.02,.02,.03,.04,.04,.06,.18,.26,.33,.54,.48,.82,.17,.31,.34,.62,.54,.91,.2,.28,.47,.59,.73,.9,.09,.11,.18,.21,.26,.3,.41,.49,.8,.95,1.53,.95h0c.18,0,.38-.03,.6-.09,.62-.17,1.73-.59,2.1-1.5,.1-.24,.17-.58,.24-.93,.05-.27,.11-.55,.18-.78v-.04c-.08,.24-.14,.54-.19,.82-.07,.36-.14,.69-.24,.93-.37,.91-1.47,1.32-2.09,1.49-.22,.06-.41,.09-.6,.09h0c-.71,0-1.1-.46-1.51-.95-.08-.1-.17-.2-.26-.3-.26-.3-.53-.61-.73-.89-.2-.29-.38-.61-.54-.91-.15-.27-.3-.55-.48-.82-.01-.02-.03-.04-.04-.06-.25-.33-.65-.5-1.02-.66-.08-.03-.16-.07-.23-.1-.2-.09-.41-.13-.62-.17-.05,0-.1-.02-.15-.03-.06-.01-.13-.03-.19-.05-.12-.04-.25-.07-.37-.07-.03,0-.06,0-.09,0h0c-.13,.02-.29,.05-.44,.05-.3,0-.49-.1-.57-.3-.09-.21-.06-.57-.03-.88,0-.05,0-.09,.01-.14h-.01s0,.09,0,.14c-.03,.32-.05,.67,.03,.89Z"/>
      <path d="M23.18,.4c.39,.53,1.08,.84,1.84,.84,.19,0,.37-.02,.55-.06,.68-.15,.9-.61,.99-1.18h-.01c-.03,.18-.07,.35-.14,.5-.16,.36-.43,.58-.85,.67-.17,.04-.36,.06-.55,.06-.76,0-1.44-.31-1.83-.83-.04-.11-.08-.25-.11-.39h-.01c.04,.15,.07,.29,.12,.4h0Z"/>
      <path d="M19.47,.67c.35,.05,.68,.15,.99,.25,.2,.06,.42,.13,.63,.18,.14,.03,.28,.06,.4,.08,.12,.02,.24,.03,.33,.03h0c.19,0,.3-.04,.34-.12,.1-.21,.17-.66,.17-1.1h-.01c0,.44-.08,.89-.17,1.09-.03,.07-.14,.11-.33,.11-.09,0-.2,0-.33-.03-.12-.02-.26-.05-.4-.08-.22-.05-.43-.12-.63-.18-.32-.1-.65-.2-1-.25-.34-.05-.61-.28-.77-.66h-.01c.16,.39,.44,.62,.79,.67Z"/>
      <path d="M27.09,.34c-.02,.48-.03,.9-.35,1.14-.33,.26-.91,.33-1.34,.38-.04,0-.08,.01-.12,.02-.07,0-.15,.01-.23,.01h0c-.43,0-.89-.15-1.34-.29-.4-.12-.81-.25-1.19-.28h0c-.22,.06-.27,.3-.25,.5,.06,.77,.33,1.41,.94,2.19,.12,.16,.24,.32,.35,.47,.19,.26,.37,.51,.58,.74,.31,.35,.7,.53,1.16,.53h0c.53,0,1.13-.25,1.65-.68,.53-.57,.61-1.33,.64-2.06,0-.06,0-.12,0-.18,0-.29,.02-.66,.16-.84,.13-.16,.27-.28,.43-.39v-.02c-.16,.11-.31,.23-.44,.4-.15,.18-.15,.55-.16,.84,0,.06,0,.12,0,.18-.04,.72-.11,1.48-.64,2.05-.51,.43-1.11,.68-1.64,.68-.46,0-.84-.18-1.15-.52-.21-.23-.39-.48-.57-.74-.11-.15-.23-.31-.35-.47-.61-.78-.88-1.41-.94-2.18-.02-.19,.03-.42,.24-.48,.38,.02,.79,.15,1.19,.28,.45,.14,.91,.29,1.34,.29h0c.08,0,.16,0,.23-.01,.04,0,.08-.01,.12-.02,.42-.05,1.01-.13,1.34-.39,.33-.25,.34-.67,.36-1.15,0-.1,0-.2,.01-.31,0,0,0-.02,0-.03h-.01s0,.02,0,.03c0,.11-.01,.21-.02,.31Z"/>
      <path d="M27.29,6.81h0c-.09,.07-.23,.18-.21,.33h0s0,0,0,0c.03,.02,.05,.05,.08,.07h0s0,0,0,0c.17,.03,.33,.05,.5,.05h0c.17,0,.34-.02,.51-.05h0c-.17,.02-.34,.04-.51,.04s-.33-.02-.5-.05c-.02-.02-.05-.05-.07-.07-.01-.14,.11-.24,.21-.32h0c.16-.13,.37-.22,.59-.32,.1-.04,.19-.09,.29-.13h0c-.1,.03-.19,.08-.29,.12-.22,.1-.43,.2-.59,.33Z"/>
      <path d="M27.86,.11c.01,.18,.16,.34,.31,.34h0c-.15-.01-.29-.17-.3-.34,0-.04,0-.07,0-.11h-.01s0,.07,0,.11Z"/>
      <path d="M26.04,2.53c-.09,0-.18,0-.27,.03-.2,.04-.41,.1-.64,.17-.25,.07-.52,.15-.77,.2-.23,.04-.33,.14-.31,.32h0c.08,.17,.14,.36,.21,.56,.14,.44,.29,.89,.65,1.13,.17,.11,.38,.17,.6,.17h0c.36,0,.73-.15,.99-.4,.21-.21,.37-.55,.42-.91,.05-.38-.03-.74-.21-.99-.12-.16-.38-.27-.68-.27Zm.46,2.16c-.26,.25-.62,.4-.98,.4-.22,0-.42-.06-.59-.17-.36-.23-.5-.68-.65-1.12-.07-.2-.13-.39-.21-.56-.02-.16,.07-.26,.29-.3,.25-.05,.51-.12,.77-.2,.22-.07,.44-.13,.64-.17,.09-.02,.18-.03,.27-.03,.29,0,.54,.1,.66,.26,.4,.54,.22,1.47-.2,1.88Z"/>
      <path d="M11.08,8.34c.07,.13,.13,.26,.19,.38,.05,.11,.1,.23,.15,.34,.3,.69,.62,1.41,1.07,1.98,.17,.22,.39,.43,.59,.63,.2,.19,.38,.38,.53,.56,.07,.09,.13,.18,.19,.28,.13,.2,.25,.38,.44,.51h0s.06,0,.06,0c.76-.04,1.41-.08,2.11-.21,.5-.09,.85-.19,1.04-.29,.4-.21,.51-.57,.63-.96,.01-.04,.03-.08,.04-.12,.17-.55,.42-1.11,1.05-1.46h0s0-.01,.02-.02c.13-.07,.26-.14,.4-.21,.23-.12,.47-.25,.7-.37,.1-.05,.2-.11,.3-.16,.15-.08,.31-.17,.47-.25,.11-.05,.21-.13,.3-.2,.02-.02,.05-.04,.07-.05,.09-.06,.19-.13,.3-.17,.21-.08,.44-.09,.66-.1,.19,0,.39-.02,.58-.07,.18-.05,.3-.1,.41-.25,.33-.49,.16-.85-.11-1.32-.29-.48-.64-.86-1.05-1.12-.07-.05-.15-.08-.23-.12-.08-.04-.17-.08-.25-.14-.09-.06-.18-.13-.26-.2-.07-.05-.14-.11-.21-.16-.29-.21-.65-.45-1.04-.59-.13-.05-.29-.05-.39-.05s-.22,0-.32,.03c-.12,.02-.22,.08-.33,.13-.04,.02-.09,.05-.14,.07-.05,.02-.11,.04-.16,.06-.07,.02-.14,.05-.2,.08-.16,.09-.32,.19-.46,.29-.14,.1-.29,.19-.45,.28-.72,.41-1.35,.64-1.95,.72-.18,.03-.36,.04-.54,.04-.23,0-.45-.02-.67-.06-.17-.03-.34-.08-.51-.13-.3-.08-.6-.17-.91-.17-.17,0-.32,.02-.46,.08-.29,.11-.54,.32-.81,.56-.14,.12-.28,.24-.44,.36-.04,.03-.08,.06-.13,.09-.11,.08-.25,.17-.37,.27-.22,.19-.28,.36-.21,.6,.06,.19,.16,.39,.28,.6Zm-.06-1.19c.12-.1,.25-.2,.37-.27,.05-.03,.09-.06,.13-.09,.16-.12,.3-.24,.44-.36,.27-.23,.52-.45,.81-.55,.14-.05,.29-.08,.45-.08,.3,0,.6,.09,.9,.17,.17,.05,.35,.1,.52,.13,.22,.04,.44,.06,.67,.06,.18,0,.36-.01,.54-.04,.61-.09,1.23-.32,1.96-.73,.15-.09,.3-.19,.45-.28,.15-.1,.3-.2,.46-.29,.06-.04,.13-.06,.2-.08,.05-.02,.11-.04,.16-.06,.05-.02,.1-.05,.14-.07,.1-.06,.2-.11,.32-.13,.1-.02,.21-.03,.32-.03s.26,.01,.39,.06c.39,.14,.74,.37,1.04,.58,.07,.05,.14,.11,.21,.16,.09,.07,.17,.13,.26,.2,.08,.05,.17,.1,.25,.14,.08,.04,.15,.07,.22,.12,.4,.26,.75,.64,1.04,1.12,.27,.46,.44,.82,.11,1.3-.1,.15-.22,.19-.4,.24-.19,.06-.39,.06-.58,.07-.22,0-.46,.02-.67,.1-.11,.04-.21,.11-.3,.17-.03,.02-.05,.04-.07,.05-.09,.07-.19,.14-.3,.2-.16,.08-.32,.16-.47,.25-.1,.05-.2,.11-.3,.16-.24,.12-.47,.25-.7,.37-.13,.07-.26,.14-.4,.21h0s-.01,.01-.02,.02c-.64,.35-.89,.92-1.06,1.47-.01,.04-.03,.08-.04,.12-.12,.39-.23,.75-.62,.96-.19,.1-.54,.2-1.04,.29-.7,.13-1.35,.17-2.11,.21h-.05c-.2-.12-.31-.3-.44-.5-.06-.09-.12-.19-.19-.28-.15-.19-.33-.37-.53-.56-.2-.21-.42-.42-.59-.63-.46-.57-.77-1.29-1.07-1.97-.05-.11-.1-.23-.15-.34-.06-.13-.13-.26-.19-.39-.11-.21-.21-.41-.28-.6-.07-.23-.01-.4,.2-.58Z"/>
      <path d="M12.24,9.23l.03,.1c.26,.98,.66,1.57,1.45,2.15h.02c.43,.33,.8,.6,1.21,.73,.21,.07,.46,.1,.72,.1h0c.36,0,.72-.06,.97-.17,.66-.27,.91-.85,1.19-1.53,.37-.88,1.01-2.02,1.99-2.45,.18-.08,.35-.09,.53-.11,.07,0,.14-.01,.21-.02,.28-.04,.58-.1,.95-.17,.05,0,.1-.02,.15-.03,.26-.06,.61-.22,.73-.5,.08-.2,.07-.39-.03-.55-.32-.48-1.42-.64-1.87-.64h0c-.2,0-.4,.02-.6,.04-.11,.01-.23,.02-.34,.03-.19,.01-.34,.07-.53,.19-.2,.12-.41,.18-.66,.18-.19,0-.38-.03-.59-.06-.06-.01-.13-.02-.19-.03-.27-.04-.55-.06-.9-.06-.22,0-.44,0-.65,.01-.21,0-.43,.01-.64,.01-.39,0-.7-.02-.99-.07-.08-.02-.17-.04-.27-.06-.21-.05-.44-.11-.68-.11-.13,0-.25,.02-.36,.05-.54,.16-1,.83-1.08,1.35-.03,.19-.03,.39,.01,.63,.06,.36,.15,.67,.24,1Zm-.24-1.62c.08-.52,.53-1.17,1.07-1.34,.11-.03,.22-.05,.35-.05,.23,0,.47,.06,.67,.11,.1,.02,.19,.04,.27,.06,.29,.05,.6,.07,.99,.07,.21,0,.43,0,.64-.01,.21,0,.43-.01,.65-.01,.35,0,.63,.02,.9,.06,.06,.01,.13,.02,.19,.03,.2,.03,.4,.06,.59,.06,.26,0,.47-.06,.67-.18,.19-.12,.34-.17,.53-.18,.11,0,.23-.02,.34-.03,.2-.02,.4-.04,.6-.04h0c.45,0,1.54,.16,1.85,.64,.1,.16,.12,.34,.03,.54-.11,.27-.46,.43-.72,.49-.05,.01-.1,.02-.15,.03-.36,.08-.67,.13-.95,.17-.07,0-.14,.02-.21,.02-.18,.02-.35,.03-.53,.11-.98,.43-1.62,1.57-1.99,2.46-.28,.67-.52,1.25-1.18,1.52-.25,.1-.61,.17-.97,.17h0c-.27,0-.52-.03-.72-.1-.41-.13-.78-.4-1.2-.71h-.02c-.79-.59-1.18-1.17-1.44-2.16l-.03-.1c-.09-.33-.17-.64-.23-1-.04-.23-.04-.43-.01-.62Z"/>
      <path d="M26.98,8.99h0c-.03,.06-.06,.1-.09,.15-.09,.15-.15,.24-.17,.48-.02,.19-.01,.39,0,.58,0,.23,.02,.46-.02,.69-.13,.82-.79,1.66-1.52,1.96-.07,.03-.17,.07-.23,.08-.05,0-.1,.01-.15,.01h0c-.43,0-.53-.42-.62-.83-.02-.09-.04-.18-.07-.27-.1-.34-.23-.56-.43-.72-.2-.16-.46-.27-.86-.34-.16-.03-.31-.04-.46-.04-.28,0-.54,.05-.89,.17-.02,0-.03,0-.04,.02-.19,.07-.35,.12-.47,.3-.22,.35-.4,.9-.32,1.3,.08,.39,.36,.47,.66,.55,.06,.02,.12,.03,.17,.05,.09,.03,.16,.06,.23,.1,.45,.25,.94,.48,1.56,.72,.52,.2,.78,.65,1.02,1.08,.24,.42,.49,.85,.98,1.05,.08,.03,.16,.05,.25,.05h0c.11,0,.23-.02,.36-.07,.35-.12,.66-.5,.9-.81,.37-.49,.82-1.1,1.36-1.5,.01,0,.03-.02,.04-.03v-.02s-.03,.02-.05,.04c-.54,.39-1,1.01-1.37,1.5-.23,.31-.54,.69-.89,.81-.13,.04-.25,.07-.35,.07h0c-.09,0-.17-.02-.25-.05-.49-.2-.73-.63-.97-1.05-.25-.43-.5-.88-1.03-1.08-.62-.24-1.11-.47-1.56-.72-.06-.04-.14-.07-.23-.1-.06-.02-.12-.03-.17-.05-.29-.08-.57-.16-.65-.54-.08-.39,.09-.95,.31-1.29,.11-.17,.27-.23,.46-.29,.01,0,.03-.01,.04-.02,.34-.12,.61-.17,.88-.17,.14,0,.29,.01,.45,.04,.77,.14,1.09,.41,1.28,1.05,.03,.09,.05,.18,.07,.27,.1,.41,.2,.84,.64,.84h0s.1,0,.15-.01c.07-.01,.17-.05,.24-.08,.36-.15,.71-.43,.99-.8,.28-.36,.46-.78,.53-1.17,.04-.23,.03-.47,.02-.69,0-.19-.02-.39,0-.58,.03-.24,.08-.33,.17-.48,.02-.04,.05-.09,.09-.14,.26-.21,.56-.32,.91-.32,.09,0,.18,0,.28,.02h0c-.09-.03-.19-.04-.28-.04-.35,0-.66,.11-.92,.32Z"/>
      <path d="M27.45,9.95c-.07,.2-.08,.4-.09,.63,0,.08,0,.17-.02,.26-.03,.36-.1,.72-.17,1.08-.07,.35-.13,.68-.14,.94h0s0,0,0,0c.04,.03,.08,.06,.14,.06,0,0,.02,0,.03,0h0c.13-.08,.27-.14,.41-.21,.19-.09,.39-.19,.57-.31v-.02c-.18,.12-.38,.22-.58,.32-.14,.07-.28,.13-.41,.21,0,0-.02,0-.02,0-.05,0-.09-.03-.13-.05,.01-.26,.07-.59,.14-.94,.07-.35,.14-.72,.17-1.08,0-.09,.01-.18,.02-.26,.01-.23,.03-.44,.09-.63,.09-.27,.32-.44,.57-.44,.05,0,.1,0,.14,.02h0s-.1-.03-.14-.03c-.26,0-.49,.18-.58,.45Z"/>
      <path d="M22.4,11.72c-.25,0-.5,.12-.5,.39h0c.08,.27,.44,.59,.76,.59h0c.08,0,.15-.02,.21-.06,.09-.06,.15-.15,.17-.25,.03-.14-.02-.3-.11-.43-.11-.15-.32-.24-.54-.24Zm.64,.67c-.02,.1-.08,.19-.16,.25-.06,.04-.13,.06-.21,.06-.32,0-.68-.32-.75-.58,0-.26,.25-.38,.48-.38,.22,0,.42,.09,.53,.24,.09,.12,.13,.28,.1,.42Z"/>
      <path d="M26.69,13.34h0s-.05-.01-.08-.01c-.11,0-.23,.07-.34,.14-.04,.02-.09,.05-.13,.07-.02,.01-.05,.02-.08,.04-.38,.18-.89,.44-.86,1.04,.05,.19,.21,.38,.44,.38h0s.04,0,.07,0c.42-.17,.67-.66,.85-1.07v-.03c.09-.18,.18-.39,.13-.54h0Zm-.13,.53v.03c-.19,.41-.44,.89-.85,1.07-.02,0-.04,0-.06,0h0c-.22,0-.38-.18-.43-.37-.04-.59,.48-.84,.85-1.03,.03-.01,.05-.02,.08-.04,.04-.02,.09-.05,.13-.07,.11-.07,.23-.13,.34-.13,.02,0,.05,0,.07,0,.04,.14-.04,.35-.12,.52Z"/>
      <path d="M22.06,17.96c-.12-.11-.25-.17-.37-.17-.29,0-.48,.33-.52,.65-.03,.25-.02,.51,.02,.73,.04,.21,.13,.32,.3,.38,.04,.01,.09,.03,.15,.04,.09,.02,.18,.03,.25,.03h0c.21,0,.36-.07,.45-.21,.1-.16,.09-.54,.06-.73-.04-.28-.16-.54-.35-.71Zm.27,1.43c-.09,.14-.24,.21-.44,.21-.08,0-.16,0-.25-.03-.06-.01-.11-.02-.15-.04-.17-.06-.25-.16-.29-.37-.04-.22-.05-.48-.02-.72,.04-.32,.22-.64,.5-.64,.12,0,.24,.06,.36,.17,.18,.17,.31,.42,.34,.7,.02,.18,.04,.57-.06,.72Z"/>
      <path d="M1.38,22.31c.12-.02,.23-.05,.33-.07,.12-.03,.24-.06,.4-.08,.14-.02,.29-.03,.43-.04,.32-.02,.65-.04,.94-.19,.36-.19,.39-.66,.27-1.05-.21-.66-.47-1.11-.81-1.39-.13-.11-.26-.23-.38-.36-.25-.24-.5-.5-.83-.63-.25-.1-.54-.18-.82-.25-.17-.04-.34-.09-.51-.14-.08-.02-.16-.05-.25-.09-.05-.02-.1-.04-.15-.05H0s.1,.05,.14,.07c.09,.03,.17,.06,.25,.09,.17,.05,.34,.1,.51,.14,.28,.07,.57,.15,.82,.25,.33,.13,.58,.38,.82,.62,.12,.12,.25,.25,.38,.36,.34,.28,.6,.73,.81,1.38,.12,.38,.08,.85-.26,1.03-.28,.15-.61,.17-.93,.19-.14,0-.29,.02-.43,.04-.15,.02-.28,.05-.4,.08-.1,.03-.21,.05-.33,.07-.23,.04-.46,.07-.69,.1-.24,.03-.47,.06-.69,.1H0c.22-.03,.45-.06,.69-.09,.23-.03,.46-.06,.69-.1Z"/>
      <path d="M1.08,21.52c.3-.08,.6-.17,.9-.3,.29-.12,.58-.27,.71-.57,.17-.38,0-.8-.44-1.11-.08-.05-.15-.11-.22-.16-.3-.22-.58-.42-.98-.5-.26-.05-.65-.08-1.05-.09H0c.4,.02,.78,.05,1.04,.1,.4,.08,.68,.28,.98,.5,.07,.05,.14,.11,.22,.16,.44,.3,.6,.71,.43,1.09-.13,.29-.42,.44-.7,.56-.29,.13-.6,.21-.89,.3-.15,.04-.31,.09-.47,.14-.2,.06-.41,.11-.61,.14H0c.2-.03,.41-.07,.61-.13,.16-.05,.32-.1,.47-.14Z"/>
      <path d="M.99,23.08c.3,.01,.61,.02,.91,0,.28-.03,.53-.09,.78-.14,.06-.01,.12-.03,.18-.04,.05-.01,.09-.02,.14-.03,.47-.1,.96-.2,1.35-.47,.46-.31,.52-.97,.31-1.43-.19-.42-.51-.75-.83-1.06-.26-.26-.53-.54-.72-.86-.09-.12-.16-.23-.23-.34-.23-.35-.41-.63-.88-.74-.92-.21-1.71-.4-1.85-1.31-.05-.32,.02-.58,.09-.82,.05-.19,.11-.38,.09-.58h0s0,0,0,0c-.02-.02-.05-.05-.07-.07-.03-.03-.06-.06-.1-.09h0s0,0,0,0c-.06,0-.12,.01-.16,.02H0s.1,0,.16,0c.03,.03,.06,.06,.09,.09,.02,.02,.04,.05,.07,.07,.01,.21-.04,.39-.09,.58-.07,.25-.14,.5-.09,.83,.15,.92,.94,1.11,1.86,1.32,.47,.11,.65,.39,.87,.73,.07,.11,.14,.22,.23,.34,.19,.32,.46,.6,.72,.86,.31,.32,.63,.64,.83,1.06,.21,.45,.15,1.1-.31,1.41-.4,.27-.88,.37-1.35,.47-.05,0-.09,.02-.14,.03-.06,.01-.12,.03-.18,.04-.25,.05-.5,.11-.78,.14-.3,.03-.61,.02-.91,0-.35-.01-.67-.02-.99,.02H0c.31-.03,.64-.02,.99-.01Z"/>
      <path d="M10.11,20.12s.08,.04,.12,.06c.15,.11,.28,.26,.37,.37,.21,.27,.33,.54,.42,.88,.11,.48,.42,.67,.9,.84,.28,.1,.58,.15,.89,.15,.15,0,.3-.01,.45-.04,.52-.09,.86-.41,.92-.87,.01-.1,.03-.2,.05-.29,.07-.39,.14-.79-.08-1.16-.19-.29-.54-.33-.89-.33-.07,0-.14,0-.2,0-.06,0-.13,0-.19,0-.13,0-.22,0-.3-.02-.28-.04-.56-.11-.83-.18-.44-.11-.86-.21-1.28-.21-.09,0-.18,0-.26,.01-.11,.01-.2,.1-.26,.25-.05,.13-.07,.31,.02,.41,.04,.05,.11,.08,.17,.11Zm-.17-.52c.05-.14,.15-.23,.25-.24,.08,0,.17-.01,.26-.01,.42,0,.83,.1,1.28,.21,.27,.07,.55,.13,.83,.18,.08,.01,.18,.02,.3,.02,.06,0,.13,0,.19,0,.07,0,.13,0,.2,0,.35,0,.69,.04,.88,.33,.22,.36,.15,.76,.08,1.15-.02,.1-.04,.2-.05,.29-.06,.45-.39,.77-.91,.86-.14,.03-.29,.04-.45,.04-.3,0-.61-.05-.89-.15-.48-.17-.78-.36-.89-.83-.08-.35-.21-.61-.42-.89-.08-.11-.21-.26-.37-.38-.03-.03-.08-.04-.12-.07-.06-.03-.13-.06-.17-.11-.07-.08-.07-.25-.01-.4Z"/>
      <path d="M12.52,21.88c.16,0,.32-.03,.39-.05,.02,0,.05-.02,.07-.03,.13-.06,.2-.16,.2-.29,0-.1-.04-.2-.11-.28-.1-.1-.24-.14-.38-.1-.15,.04-.45,.22-.54,.41-.03,.07-.04,.13-.01,.19,.05,.12,.24,.14,.39,.14Zm-.36-.32c.09-.19,.39-.36,.54-.4,.04-.01,.07-.02,.11-.02,.1,0,.19,.04,.26,.11,.07,.07,.11,.17,.11,.27,0,.12-.07,.22-.2,.27-.02,0-.04,.02-.06,.03-.08,.02-.24,.05-.39,.05-.21,0-.34-.05-.37-.13-.02-.05-.02-.11,.01-.18Z"/>
      <path d="M16.56,26.83s0-.06,0-.09c0-.03,0-.07,0-.1-.03-.21-.11-.47-.2-.75-.09-.28-.19-.57-.24-.85-.02-.12-.03-.24-.04-.37-.04-.4-.08-.81-.36-.99-.13-.08-.31-.12-.58-.12-.15,0-.31,.01-.47,.02-.06,0-.12,0-.19,.01-.55,.03-1.69,.18-2.09,.48-.54,.41-.61,1.12-.6,1.76,.06,.81,.62,1.26,1.22,1.71h.02c-.61-.46-1.17-.91-1.23-1.71,0-.64,.06-1.34,.6-1.75,.4-.3,1.54-.44,2.09-.48,.06,0,.12,0,.19-.01,.16-.01,.32-.02,.47-.02,.27,0,.45,.04,.57,.12,.27,.18,.31,.59,.35,.98,.01,.12,.02,.25,.04,.37,.05,.28,.14,.57,.24,.85,.09,.27,.18,.53,.2,.75,0,.03,0,.07,0,.1,0,.03,0,.07,0,.1,.03,.21,0,.46-.07,.71h.01c.07-.25,.1-.5,.07-.71Z"/>
      <path d="M1.86,26.92c0-.19,0-.37,0-.55,0-.28,.02-.54-.03-.75-.12-.52-.77-.89-1.34-1.06-.17-.05-.33-.07-.49-.06H0c.16,0,.32,.02,.49,.07,.57,.17,1.22,.54,1.33,1.05,.05,.21,.04,.47,.03,.75,0,.18-.01,.37,0,.55,0,.22,0,.43-.02,.62h.01c.02-.19,.03-.4,.02-.62Z"/>
      <path d="M15.88,26.71c-.02-.13-.07-.28-.12-.44-.07-.23-.15-.5-.19-.77-.01-.08-.02-.15-.03-.22-.06-.46-.11-.82-.42-1.06-.21-.16-.6-.26-1.04-.26-.54,0-1.05,.14-1.35,.37-.5,.38-.52,1.04-.45,1.53,.11,.52,.48,.79,.96,1.13,.22,.16,.45,.32,.68,.53,0,0,.01,.01,.02,.02h.02s-.02-.02-.03-.03c-.23-.21-.47-.38-.68-.54-.47-.34-.85-.61-.96-1.12-.07-.49-.05-1.14,.44-1.52,.3-.23,.8-.36,1.34-.36,.44,0,.83,.1,1.04,.26,.3,.24,.35,.6,.41,1.05,.01,.07,.02,.14,.03,.22,.04,.27,.12,.54,.19,.77,.05,.16,.09,.31,.12,.44,.05,.27,.03,.56-.05,.83h.01c.08-.27,.1-.56,.05-.83Z"/>
      <path d="M6.39,25.93c-.05-.19-.1-.55-.07-.8,0-.05,.02-.11,.04-.16,.05-.2,.12-.45-.14-.64h0s0,0,0,0c-.47-.06-.76,.33-1.01,.67-.07,.09-.13,.17-.19,.25-.23,.24-.54,.41-.88,.6-.51,.29-1.05,.58-1.3,1.16-.07,.16-.13,.35-.19,.54h.01c.06-.18,.12-.37,.19-.53,.25-.57,.78-.87,1.29-1.15,.33-.18,.65-.36,.88-.6,.07-.08,.13-.16,.19-.25,.25-.34,.53-.72,1-.67,.25,.18,.19,.41,.13,.62-.02,.06-.03,.12-.04,.17-.03,.25,.01,.62,.07,.81,.08,.3,.21,.59,.33,.91,.09,.23,.19,.46,.27,.7h.01c-.08-.24-.18-.47-.27-.7-.13-.32-.25-.61-.33-.91Z"/>
      <path d="M13.87,24.35c-.29,0-.58,.09-.77,.23-.25,.19-.4,.41-.37,.96,.17,.69,.92,1.07,1.54,1.07h0c.08,0,.16,0,.24-.02h0c.08-.07,.17-.16,.25-.26h0c.23-.71,.22-1.3-.03-1.61-.18-.23-.49-.36-.86-.36Zm.88,1.96c-.08,.11-.16,.19-.24,.26-.08,.01-.15,.02-.23,.02h0c-.62,0-1.37-.37-1.53-1.06-.03-.54,.12-.76,.36-.94,.19-.14,.47-.23,.77-.23,.37,0,.68,.13,.85,.35,.24,.31,.25,.9,.03,1.6Z"/>
      <path d="M10.66,26.3c-.1-.47-.2-.96-.51-1.35-.16-.2-.36-.28-.6-.24-.51,.08-1.12,.54-1.45,.79-.37,.38-.5,.84-.42,1.41,.03,.2,.09,.42,.15,.63h.01c-.06-.21-.12-.43-.15-.63-.08-.56,.06-1.02,.42-1.4,.33-.25,.93-.71,1.44-.78,.04,0,.08,0,.11,0,.19,0,.35,.08,.48,.25,.31,.39,.41,.87,.51,1.35,.09,.42,.18,.87,.42,1.22,0,0,0,.01,.01,.02h.02s-.01-.02-.02-.02c-.24-.35-.33-.79-.42-1.21Z"/>
      <path d="M13.93,25.25h0c-.05-.08-.13-.13-.21-.13-.03,0-.05,0-.08,.02h0s-.08,.1-.09,.15c0,.04,0,.08,.03,.11,.02,.01,.03,.03,.05,.05h0s0,0,0,0c.03,0,.05,.01,.08,.01h0c.08,0,.16-.05,.21-.13h0s0-.05,0-.07h0Zm-.01,.07c-.04,.08-.12,.12-.2,.12h0s-.05,0-.07-.01c-.02-.02-.03-.04-.05-.05-.02-.03-.03-.06-.03-.1,0-.05,.04-.11,.08-.14,.03,0,.05-.01,.07-.01,.08,0,.15,.05,.2,.12,0,.02,0,.04,0,.06Z"/>
      <path d="M.65,25.83c-.16-.2-.32-.28-.65-.34H0c.33,.08,.48,.16,.64,.35,.28,.35,.46,1,.5,1.46,0,.08,.01,.16,.01,.24h.01c0-.07,0-.15-.01-.24-.04-.46-.22-1.12-.5-1.47Z"/>
      <path d="M9.05,26s-.04,0-.06,0c-.18,.01-.34,.1-.46,.24-.17,.2-.25,.51-.21,.87,.01,.14,.04,.28,.07,.42h.01c-.03-.14-.05-.28-.07-.42-.03-.36,.04-.66,.21-.87,.12-.14,.27-.22,.45-.24,.02,0,.04,0,.06,0,.53,0,.73,.63,.9,1.19,.04,.12,.07,.23,.11,.33h.01c-.04-.1-.07-.22-.11-.34-.17-.56-.37-1.2-.91-1.2Z"/>
      <path d="M5.45,26.53c-.09-.01-.18-.02-.27-.02-.36,0-.71,.1-1.02,.28-.3,.18-.54,.44-.71,.75h.01c.33-.63,.99-1.01,1.71-1.01,.09,0,.18,0,.27,.02,.39,.05,.77,.37,1.04,.88,.02,.04,.04,.08,.06,.12h.01s-.04-.08-.06-.12c-.28-.51-.66-.83-1.05-.88Z"/>
      <path d="M.02,27.09s-.01,0-.02,0H0s.01,.01,.02,.01c.1,0,.18,.07,.24,.19,.03,.07,.05,.16,.05,.25h.01c0-.09-.02-.18-.05-.26-.05-.12-.14-.19-.25-.19Z"/>
      <path d="M4.43,27.54h.02c.21-.14,.46-.22,.71-.22s.48,.08,.67,.22h.02c-.19-.15-.43-.24-.69-.24s-.52,.09-.74,.24Z"/>
      <path d="M23.36,26.27c-.15-.28-.32-.58-.44-.88-.07-.17-.13-.35-.2-.54-.29-.83-.61-1.76-1.62-1.76h-.04c-.37,0-.71,.14-.94,.24-.05,.02-.11,.05-.17,.08-.17,.08-.34,.16-.5,.24-.46,.25-.98,.38-1.49,.5h0s-.09,.02-.14,.03c-.34,.07-.76,.16-.9,.56-.1,.3,0,.69,.08,1.07,.03,.14,.06,.27,.09,.39,.07,.43,.08,.83,.01,1.2,0,.05-.02,.09-.03,.14h.01s.02-.09,.03-.14c.06-.37,.06-.77-.01-1.2-.02-.12-.05-.25-.09-.39-.09-.38-.18-.76-.08-1.06,.13-.39,.55-.48,.89-.55,.05-.01,.09-.02,.14-.03h0c.51-.12,1.04-.24,1.49-.5,.16-.09,.33-.17,.5-.25,.06-.03,.11-.05,.17-.08,.22-.11,.57-.23,.93-.24,.01,0,.03,0,.04,0,1,0,1.32,.93,1.61,1.75,.07,.19,.13,.38,.2,.54,.13,.3,.29,.6,.44,.88,.13,.24,.26,.47,.36,.7,.11,.23,.22,.42,.34,.56h.02c-.12-.14-.23-.32-.34-.56-.11-.24-.23-.46-.36-.71Z"/>
      <path d="M27.81,23.8c-.83,.31-1.38,.91-1.6,1.71-.06,.22-.1,.51-.15,.79-.05,.35-.11,.7-.19,.95-.04,.11-.09,.2-.16,.28h.02c.07-.08,.12-.17,.16-.28,.09-.25,.14-.61,.19-.95,.04-.28,.08-.57,.15-.79,.22-.8,.77-1.39,1.59-1.7,.07-.03,.19-.06,.29-.08,.02,0,.05,0,.07-.01h0s-.05,0-.07,0c-.1,.02-.22,.05-.29,.08Z"/>
      <path d="M27.01,17.84c-.27,.06-.52,.19-.77,.31-.25,.12-.5,.25-.77,.31-.68,.15-.94-.45-1.16-.98-.03-.08-.06-.15-.09-.22-.13-.28-.27-.53-.43-.75-.32-.45-.69-.81-1.09-1.06-.38-.24-.69-.37-1-.41-.49-.07-.84,.09-1.24,.26-.09,.04-.18,.08-.27,.12-.27,.11-.57,.23-.77,.5-.15,.2-.27,.44-.38,.67l-.03,.05c-.21,.43-.36,.86-.52,1.3-.04,.1-.07,.21-.11,.31-.1,.28-.2,.57-.32,.84-.09,.21-.23,.39-.36,.56-.08,.1-.15,.2-.22,.3-.17,.26-.44,.49-.71,.72-.09,.08-.18,.16-.27,.23-.05,.05-.11,.1-.17,.15-.27,.23-.58,.5-.66,.84-.01,.04-.02,.09-.03,.13-.09,.38-.16,.7-.54,.94-.36,.22-.79,.3-1.17,.36-.18,.03-.36,.05-.54,.08-.33,.04-.64,.08-.92,.16-.64,.17-1.03,.62-1.16,1.32-.13,.69,0,1.53,.14,1.88,.13,.31,.34,.55,.6,.77h.02c-.26-.22-.48-.46-.61-.78-.14-.34-.27-1.18-.14-1.87,.13-.7,.52-1.14,1.15-1.31,.28-.08,.59-.12,.92-.16,.18-.02,.36-.05,.54-.08,.38-.06,.82-.14,1.18-.36,.38-.24,.46-.57,.54-.95,.01-.04,.02-.09,.03-.13,.08-.33,.39-.6,.66-.83,.06-.05,.12-.1,.17-.15,.08-.08,.17-.15,.27-.23,.26-.22,.53-.45,.71-.72,.07-.1,.15-.2,.22-.3,.13-.18,.27-.36,.37-.57,.12-.27,.22-.56,.32-.84,.04-.1,.07-.21,.11-.31,.16-.45,.31-.87,.52-1.3l.02-.05c.11-.23,.23-.47,.38-.67,.2-.26,.5-.38,.77-.49,.09-.04,.18-.08,.27-.12,.4-.18,.75-.33,1.24-.26,.3,.04,.62,.17,.99,.41,.4,.26,.77,.61,1.09,1.06,.16,.22,.3,.47,.43,.75,.03,.07,.06,.14,.09,.22,.11,.25,.23,.54,.41,.74,.21,.23,.46,.31,.77,.24,.26-.06,.52-.19,.77-.31,.25-.12,.5-.25,.77-.31,.43-.1,.83,.02,1.17,.13h0c-.33-.13-.73-.24-1.17-.15Z"/>
      <path d="M26.32,22.78c-.31,.3-.6,.59-.99,.7-.53,.16-.94-.24-1.33-.62-.02-.02-.05-.05-.07-.07-.2-.19-.44-.34-.66-.48-.16-.1-.33-.21-.49-.33-.12-.09-.24-.17-.36-.26-.08-.06-.16-.11-.24-.17-.13-.1-.22-.25-.31-.39-.05-.08-.1-.16-.15-.23-.15-.19-.36-.34-.57-.48-.38-.26-.73-.51-.76-1.02-.01-.3,.05-.68,.19-1.04,.13-.33,.37-.7,.66-1,.2-.2,.4-.3,.6-.28,.36,.03,.66,.41,.89,.73,.13,.19,.19,.38,.24,.57,.03,.11,.07,.23,.12,.35,.05,.12,.11,.24,.17,.36,.09,.18,.19,.38,.25,.58,.1,.34,.12,.83-.04,1.12-.15,.28-.08,.74,.08,.99,.14,.22,.5,.36,.79,.48,.07,.03,.13,.05,.18,.07,.03,.01,.05,.02,.08,.03,.09,.04,.17,.08,.26,.1,.45,.09,.76-.12,.94-.66,.2-.56,.06-1.07-.38-1.44-.13-.11-.29-.2-.44-.28-.07-.04-.14-.08-.21-.12-.02-.01-.04-.02-.05-.03-.2-.12-.44-.26-.57-.43-.2-.25-.36-.52-.49-.81-.06-.15-.11-.3-.16-.46-.04-.11-.08-.23-.12-.35-.1-.27-.26-.51-.37-.67-.21-.29-.59-.67-.97-.81-.6-.22-1.4,.37-1.8,.82-.22,.25-.37,.57-.48,.84-.03,.07-.06,.15-.09,.22-.16,.41-.32,.8-.58,1.16-.08,.12-.15,.24-.22,.36-.05,.09-.1,.17-.15,.26-.14,.22-.35,.35-.56,.45-.1,.05-.2,.1-.29,.14-.28,.13-.56,.26-.8,.48-.15,.14-.21,.29-.18,.44,.05,.25,.33,.44,.58,.54,.51,.19,1.11,.12,1.63,.06h.07s.08-.02,.12-.02c.23-.02,.45-.05,.67-.17,.04-.02,.07-.04,.1-.06,.33-.19,.62-.35,1-.44,.24-.05,.59-.05,.81,.09,.11,.07,.15,.17,.2,.28,.03,.07,.06,.13,.11,.2,.18,.24,.43,.42,.66,.61,.23,.18,.47,.36,.66,.59,.11,.14,.2,.31,.29,.47,.09,.17,.18,.34,.28,.47,.22,.27,.51,.36,.83,.26,.28-.09,.58-.32,.88-.55,.05-.04,.09-.07,.13-.1,.16-.12,.31-.24,.45-.36,.4-.33,.78-.64,1.21-.81,.17-.07,.36-.12,.57-.16h0c-.21,.03-.41,.08-.58,.15-.43,.17-.81,.49-1.22,.81-.15,.12-.3,.24-.45,.36-.04,.03-.09,.07-.13,.1-.3,.23-.6,.46-.88,.55-.31,.1-.6,0-.81-.25-.1-.13-.19-.29-.28-.46-.09-.17-.18-.34-.29-.48-.18-.23-.42-.42-.66-.59-.24-.18-.48-.37-.66-.6-.04-.06-.07-.13-.1-.19-.05-.11-.1-.21-.21-.28-.22-.14-.58-.14-.82-.09-.38,.09-.67,.25-1,.44-.03,.02-.07,.04-.1,.06-.22,.12-.43,.14-.66,.17-.04,0-.08,0-.12,.01h-.07c-.52,.07-1.11,.14-1.62-.05-.31-.11-.53-.32-.57-.53-.03-.15,.03-.29,.17-.43,.23-.22,.52-.35,.79-.48,.1-.04,.2-.09,.29-.14,.21-.11,.42-.24,.56-.46,.05-.08,.1-.17,.15-.26,.07-.12,.13-.24,.22-.36,.26-.36,.41-.75,.58-1.16,.03-.07,.06-.15,.09-.22,.11-.27,.25-.58,.47-.83,.39-.45,1.19-1.03,1.78-.81,.38,.14,.75,.52,.96,.81,.11,.15,.27,.39,.37,.66,.04,.12,.08,.24,.12,.35,.05,.16,.1,.31,.16,.46,.12,.29,.29,.56,.49,.81,.14,.17,.38,.32,.57,.43,.02,0,.04,.02,.05,.03,.07,.04,.14,.08,.21,.12,.15,.08,.3,.17,.44,.28,.44,.36,.57,.87,.38,1.42-.18,.53-.49,.74-.93,.65-.09-.02-.17-.05-.26-.1-.02-.01-.05-.02-.08-.04-.05-.02-.12-.05-.18-.07-.29-.11-.65-.25-.79-.47-.16-.24-.23-.7-.08-.97,.16-.29,.14-.79,.04-1.13-.06-.2-.16-.4-.25-.58-.06-.12-.12-.24-.17-.36-.05-.12-.08-.24-.12-.35-.05-.2-.11-.38-.24-.57-.23-.33-.54-.71-.9-.74-.2-.02-.41,.08-.61,.28-.3,.3-.54,.67-.67,1-.13,.36-.2,.74-.19,1.04,.03,.52,.4,.77,.76,1.03,.21,.14,.42,.29,.57,.48,.05,.07,.1,.15,.15,.23,.09,.15,.18,.3,.31,.39,.08,.06,.16,.12,.24,.17,.12,.08,.24,.17,.35,.26,.15,.12,.33,.23,.49,.33,.23,.14,.47,.29,.66,.48,.03,.02,.05,.05,.07,.07,.39,.38,.8,.78,1.34,.62,.39-.11,.68-.4,.99-.7,.29-.29,.6-.59,1.01-.76,.26-.11,.55-.17,.83-.23h0c-.28,.04-.57,.11-.84,.22-.41,.17-.72,.47-1.02,.76Z"/>
      <path d="M26.8,18.88c-.21,.04-.43,.15-.66,.26-.38,.19-.77,.38-1.14,.27-.65-.2-.9-.9-1.12-1.5-.05-.12-.09-.24-.13-.36-.1-.25-.23-.48-.38-.69-.23-.32-.52-.52-.82-.73-.05-.03-.09-.06-.14-.1-.26-.19-.59-.37-.96-.32-.12,.02-.24,.08-.36,.14-.07,.04-.14,.07-.21,.1-.05,.02-.1,.04-.16,.06-.4,.14-.81,.29-1.1,.62-.08,.09-.15,.21-.22,.33-.04,.06-.07,.12-.1,.17-.14,.22-.26,.45-.36,.71-.11,.28-.17,.57-.23,.86-.07,.31-.13,.63-.26,.92-.13,.3-.47,.51-.76,.7-.08,.05-.16,.1-.23,.15-.2,.14-.38,.31-.55,.48-.11,.11-.23,.22-.35,.32-.28,.24-.41,.65-.33,1.06,.14,.73,.42,.85,1.04,.95,.47,.08,1.01,.06,1.67-.05,.38-.07,.73-.31,1.08-.54,.13-.09,.24-.17,.36-.24,.48-.29,1.06-.23,1.54,.16,.06,.05,.12,.1,.18,.15,.36,.29,.71,.57,.89,1,.08,.19,.13,.39,.19,.59,.05,.19,.1,.39,.18,.58,.12,.28,.35,.6,.6,.82,.22,.19,.55,.4,.88,.3,.31-.09,.49-.44,.69-.82,.12-.24,.25-.48,.42-.68,.22-.26,.51-.5,.72-.66l.02-.02c.43-.34,.84-.65,1.38-.76,.03,0,.07-.01,.1-.02h0s-.07,0-.11,0c-.54,.11-.95,.43-1.39,.76l-.02,.02c-.2,.16-.5,.4-.72,.66-.17,.2-.3,.45-.42,.69-.19,.37-.37,.72-.68,.81-.33,.1-.65-.11-.87-.3-.25-.22-.48-.54-.6-.81-.08-.19-.13-.39-.18-.58-.05-.2-.1-.4-.19-.59-.18-.44-.55-.73-.9-1.01-.06-.05-.12-.1-.18-.15-.48-.4-1.06-.46-1.55-.17-.12,.07-.24,.15-.36,.24-.35,.23-.7,.48-1.08,.54-.65,.12-1.19,.13-1.66,.05-.61-.1-.89-.22-1.03-.94-.08-.41,.05-.81,.33-1.05,.12-.1,.24-.22,.35-.33,.17-.17,.34-.34,.55-.48,.07-.05,.15-.1,.23-.15,.3-.19,.64-.4,.77-.71,.12-.29,.19-.62,.26-.92,.06-.29,.12-.58,.23-.86,.1-.25,.22-.49,.36-.71,.04-.05,.07-.11,.1-.17,.07-.12,.14-.23,.22-.33,.28-.32,.69-.47,1.09-.61,.05-.02,.1-.04,.16-.06,.07-.03,.14-.06,.21-.1,.12-.06,.24-.12,.35-.14,.37-.05,.69,.13,.95,.32,.05,.03,.09,.06,.14,.09,.3,.21,.58,.41,.81,.73,.15,.21,.27,.44,.37,.69,.04,.11,.09,.23,.13,.35,.22,.61,.47,1.31,1.13,1.51,.37,.11,.76-.08,1.14-.27,.23-.11,.45-.22,.65-.26,.3-.06,.84-.09,1.37-.08h0c-.53-.02-1.08,0-1.37,.06Z"/>
      <path d="M26.53,8.44c-.36,.25-.57,.6-.63,1.04-.03,.17,0,.36,.01,.54,.02,.19,.04,.39,.01,.58-.03,.21-.15,.41-.29,.49-.1,.06-.22,.07-.33,.02-.38-.45-.7-.74-1.17-.94-.14-.05-.27-.1-.44-.16-.08-.03-.17-.05-.25-.08-.51-.17-1.05-.34-1.91-.27-.42,.03-.73,.11-1,.39-.18,.18-.32,.4-.45,.62-.1,.15-.19,.31-.31,.45-.06,.07-.12,.14-.19,.21-.1,.1-.2,.21-.27,.33-.15,.24-.16,.65-.1,.92,.08,.36,.3,.66,.53,.95,.06,.07,.11,.15,.17,.23,.15,.22,.31,.44,.53,.56,.24,.13,.52,.13,.79,.11,.09,0,.19-.03,.28-.06,.13-.04,.27-.07,.41-.05,.48,.08,1.01,.42,1.36,.7,.19,.15,.36,.32,.5,.51,.12,.15,.23,.29,.34,.45,.2,.27,.41,.55,.65,.82,.22,.26,.51,.5,.96,.34,.25-.09,.47-.24,.68-.39,.3-.22,.58-.53,.84-.84,.24-.28,.47-.54,.7-.7,.06-.04,.13-.08,.25-.11h0c-.12,.01-.2,.06-.26,.1-.23,.16-.46,.42-.7,.7-.26,.3-.54,.61-.84,.83-.21,.16-.42,.3-.67,.39-.44,.15-.72-.09-.94-.34-.24-.28-.44-.55-.64-.82-.12-.16-.23-.31-.34-.45-.15-.19-.32-.36-.51-.51-.35-.28-.89-.62-1.37-.7-.14-.02-.28,.01-.41,.05-.09,.02-.18,.05-.28,.05-.27,.02-.54,.02-.78-.11-.22-.12-.37-.34-.53-.56-.06-.08-.11-.16-.17-.23-.23-.28-.46-.58-.53-.94-.06-.27-.05-.67,.1-.91,.07-.12,.17-.22,.27-.32,.07-.07,.13-.14,.19-.21,.11-.14,.21-.3,.31-.46,.13-.21,.27-.43,.45-.61,.27-.27,.58-.35,.99-.38,.86-.07,1.4,.1,1.91,.27,.08,.03,.17,.05,.25,.08,.17,.05,.31,.1,.44,.16,.47,.19,.79,.49,1.17,.93h0s0,0,0,0c.12,.05,.24,.04,.35-.02,.15-.09,.27-.28,.3-.5,.03-.19,0-.39-.01-.58-.02-.18-.04-.37-.01-.54,.06-.44,.28-.79,.63-1.03,.4-.28,.97-.41,1.63-.39h0c-.67-.04-1.24,.09-1.64,.38Z"/>
      <path d="M7.68,1.26c.02,.18,.05,.52-.01,.75-.11,.38-.41,.7-.7,1.02-.42,.44-.85,.9-.71,1.51,.07,.33,.25,.54,.55,.63,.26,.08,.58,.07,.93,.05,.65-.04,1.09,.07,1.35,.17,.26,.1,.5,.26,.73,.42,.31,.21,.6,.42,.94,.46,.13,.02,.24,.01,.37-.01,.31-.07,.54-.22,.79-.39,.42-.28,.86-.57,1.7-.4,.19,.04,.37,.09,.57,.15,.62,.18,1.27,.37,1.99,0,.65-.33,1.06-.93,1.46-1.51,.18-.27,.38-.55,.59-.8,.27-.31,.64-.75,1.09-.6,.18,.06,.37,.09,.55,.12,.29,.05,.58,.09,.85,.26,.19,.12,.34,.29,.48,.46,.07,.08,.14,.16,.21,.23,.16,.16,.29,.36,.42,.54,.11,.16,.22,.32,.35,.47,.18,.16,.33,.29,.51,.45,.22,.2,.42,.43,.61,.66,.37,.44,.71,.85,1.16,.98,.32,.09,.65,.08,1.07-.04,.22-.07,.52-.19,.73-.29,.42-.19,.9-.46,1.28-.7,.29-.19,.51-.46,.65-.79v-.03c-.13,.34-.36,.62-.66,.81-.37,.25-.85,.51-1.28,.7-.21,.09-.5,.22-.73,.29-.42,.12-.75,.13-1.06,.04-.45-.13-.79-.54-1.16-.98-.19-.23-.39-.46-.61-.66-.18-.16-.33-.3-.51-.45-.13-.14-.24-.31-.35-.46-.13-.19-.26-.38-.42-.54-.07-.07-.14-.15-.21-.23-.14-.17-.29-.34-.49-.46-.27-.17-.57-.22-.86-.26-.18-.03-.37-.06-.55-.12-.46-.15-.83,.28-1.11,.6-.21,.25-.4,.53-.59,.8-.4,.58-.8,1.18-1.45,1.5-.72,.38-1.36,.19-1.98,0-.2-.06-.38-.11-.57-.15-.85-.17-1.29,.12-1.71,.4-.25,.17-.48,.32-.79,.39-.12,.03-.23,.03-.36,.01-.33-.04-.62-.25-.93-.46-.23-.16-.47-.33-.73-.42-.26-.1-.7-.21-1.36-.17-.61,.03-1.31,.07-1.47-.67-.13-.61,.3-1.06,.71-1.5,.3-.32,.6-.64,.71-1.02,.06-.22,.04-.53,.01-.76-.04-.36-.15-.73-.26-1.13-.01-.04-.02-.08-.04-.13h-.01s.03,.09,.04,.13c.11,.39,.22,.76,.26,1.12Z"/>
      <path d="M26.72,26.09c-.05,.26-.07,.53-.09,.79-.02,.23-.04,.45-.07,.65h.01c.04-.21,.05-.43,.07-.65,.02-.26,.05-.53,.09-.79,.17-.91,.62-1.45,1.31-1.57,.04,0,.09-.01,.13-.02h0s-.09,0-.13,0c-.69,.12-1.15,.66-1.32,1.58Z"/>
      <path d="M22.91,26.81c-.08-.27-.2-.55-.32-.81l-.02-.05c-.08-.18-.14-.37-.21-.57-.14-.41-.28-.83-.55-1.14-.25-.27-.65-.42-1.11-.42-.26,0-.5,.05-.71,.14-.25,.11-.45,.24-.61,.4-.14,.13-.34,.2-.53,.27-.13,.04-.26,.09-.38,.16-.35,.2-.58,.48-.64,.81-.06,.31-.06,.71-.05,1.09,0,.23,0,.48,0,.7,0,.04,0,.08,0,.12h.01s0-.08,0-.12c.01-.22,0-.47,0-.7,0-.39-.01-.78,.05-1.09,.07-.33,.29-.61,.64-.81,.12-.06,.25-.11,.38-.16,.19-.07,.4-.14,.54-.27,.16-.16,.36-.29,.61-.4,.21-.09,.45-.14,.71-.14,.45,0,.85,.15,1.1,.42,.28,.3,.42,.72,.55,1.13,.07,.2,.13,.39,.21,.57l.02,.05c.12,.27,.24,.54,.32,.81,.04,.15,.08,.32,.12,.48,.02,.08,.04,.16,.05,.24h.01c-.02-.08-.04-.16-.06-.24-.04-.16-.07-.33-.12-.48Z"/>
      <path d="M22.31,27.05c-.03-.21-.07-.45-.15-.66-.03-.09-.09-.16-.14-.23-.04-.05-.08-.11-.11-.17-.05-.09-.08-.18-.12-.29-.11-.29-.23-.59-.55-.67-.08-.02-.18-.03-.3-.03-.14,0-.28,.01-.41,.02-.05,0-.1,0-.14,.01-.42,.03-.86,.18-1.19,.42-.4,.29-.51,.78-.56,1.12-.04,.25-.07,.61,.04,.92,0,.01,.01,.03,.02,.04h.01s-.01-.03-.02-.04c-.12-.3-.08-.67-.04-.91,.05-.34,.17-.83,.56-1.11,.33-.24,.77-.4,1.18-.42,.04,0,.09,0,.14,0,.13-.01,.27-.02,.41-.02,.13,0,.23,.01,.3,.03,.31,.08,.43,.38,.54,.67,.04,.1,.08,.2,.12,.29,.03,.06,.07,.12,.11,.17,.05,.07,.1,.14,.14,.22,.08,.21,.12,.45,.15,.66,.02,.15,.03,.32,.03,.49h.01c0-.17,0-.34-.03-.49Z"/>
      <path d="M28.16,25.48h0c-.62,.06-.96,.73-1.06,2.05h.01c.09-1.32,.43-1.98,1.04-2.04,0,0,0,0,.01,0h0s0-.01-.01-.01h0Z"/>
      <path d="M28.01,27.15c-.07,.11-.13,.24-.15,.39h.01c.01-.14,.08-.27,.14-.38,.05-.03,.11-.05,.16-.06h0c-.05,0-.11,.01-.17,.05h0Z"/>
      <path d="M7.21,25.78c.1-.33,.27-.53,.55-.83,.04-.05,.09-.09,.14-.15,.19-.2,.41-.43,.46-.66,.1-.47-.19-.75-.49-.96-.15-.1-.31-.18-.48-.26-.21-.1-.42-.21-.6-.36-.19-.16-.35-.4-.49-.7-.06-.13-.09-.28-.11-.41-.03-.13-.05-.27-.11-.4-.26-.59-.6-1.25-1.16-1.71-.24-.2-.55-.52-.63-.9-.05-.25,.02-.47,.08-.64v-.03c.14-.39,.54-1.34,1.37-1.57,.15-.04,.33-.07,.52-.11,.24-.04,.49-.08,.67-.15,.29-.11,.49-.25,.7-.42l.03-.02c.21-.16,.46-.35,.8-.33,.29,.02,.62,.17,.91,.42,.29,.24,.48,.54,.53,.81,.03,.18,.05,.32,.06,.45,.01,.12,.02,.23,.04,.35,.11,.62,.4,1.11,.88,1.46,.39,.29,.9,.49,1.53,.59,.82,.14,1.51-.12,1.77-.25,.41-.19,.86-.66,1.24-1.08,.38-.42,.58-.67,.63-1.33,.01-.21,0-.42-.02-.62,0-.08-.01-.16-.02-.24,0-.06,0-.12-.01-.18-.02-.2-.04-.41,0-.63,.08-.44,.33-.64,.79-.6,.59,.05,1.1,.45,1.31,1,.17,.44,.03,.89-.07,1.26l-.02,.06c-.17,.61-.41,1.09-.73,1.45-.18,.21-.37,.4-.57,.59-.07,.07-.14,.14-.21,.21-.1,.1-.21,.19-.32,.28-.13,.11-.27,.23-.39,.36-.17,.19-.29,.4-.39,.59-.33,.6-.56,1.13-.7,1.62-.13,.44-.48,.79-.95,.93-.6,.19-1.46,.17-2.55-.06-.54-.11-.85-.42-.95-.91-.1-.56-.49-.84-.89-1.14-.1-.08-.21-.16-.31-.24-.43-.35-.21-.68,.01-1.03,.1-.16,.2-.32,.25-.48,.07-.26-.02-.53-.11-.79-.05-.14-.09-.27-.11-.39-.1-.61-.21-1.09-.52-1.29-.17-.11-.38-.12-.65-.04-.04,.01-.09,.03-.14,.04-.11,.03-.23,.07-.32,.09-.17,.04-.35,.06-.54,.08-.2,.03-.41,.05-.63,.1-.34,.07-.65,.24-.88,.48-.22,.24-.37,.54-.41,.87-.02,.14-.03,.26,.01,.39,.11,.38,.46,.66,.77,.9,.07,.05,.14,.11,.2,.16h.01c.3,.25,.67,.56,.66,.98-.01,.43,.04,.75,.18,1.05,.23,.48,.55,.77,1.1,1,.04,.02,.08,.03,.12,.05,.19,.08,.39,.16,.57,.26,.15,.08,.25,.19,.36,.3,.06,.06,.12,.12,.19,.19,.08,.07,.16,.17,.25,.27,.21,.26,.45,.55,.82,.48,.19-.04,.37-.17,.57-.3,.17-.12,.35-.24,.55-.32,.34-.13,.82-.16,1.32-.2,.31-.02,.62-.04,.92-.09,.66-.1,1.11-.34,1.36-.71,.08-.11,.13-.23,.18-.35,.04-.09,.08-.19,.13-.28,.04-.07,.1-.12,.15-.17,.03-.03,.06-.06,.09-.09,.05-.06,.1-.12,.15-.18,.05-.07,.11-.14,.17-.2,.09-.1,.2-.2,.3-.29,.09-.09,.19-.17,.28-.27,.07-.08,.13-.16,.19-.25,.07-.09,.13-.19,.22-.28,.15-.15,.31-.31,.43-.49,.11-.16,.16-.31,.21-.47,.01-.05,.03-.1,.05-.15,.04-.12,.11-.23,.18-.33,.04-.06,.08-.13,.12-.19,.13-.25,.25-.49,.34-.73,.03-.07,.05-.14,.07-.2,0-.03,.02-.06,.03-.08,.05-.13,.09-.26,.14-.38,.14-.36,.28-.74,.35-1.08,.05-.22,.09-.45,.04-.68-.17-.79-.93-1.61-1.63-1.76-.32-.07-.73-.06-1.15,.01-.69,.13-.95,.46-.91,1.19,0,.17,.02,.34,.04,.51,.03,.36,.06,.7,.03,1.03-.02,.19-.08,.36-.13,.47-.1,.25-.33,.66-.62,1.12-.29,.45-.67,.77-1.05,.89-.73,.23-1.71,0-2.28-.54-.29-.27-.59-.73-.42-1.39,.01-.04,.03-.08,.05-.12,.02-.05,.05-.1,.06-.16,.09-.15,.2-.29,.31-.42,.24-.3,.47-.58,.38-.99-.02-.07-.05-.15-.08-.24-.07-.17-.14-.35-.06-.46,.15-.19,.36-.38,.57-.59,.38-.36,.77-.73,.88-1.08,.11-.35-.12-.7-.21-.84-.11-.16-.23-.32-.35-.5-.1-.13-.2-.27-.3-.41-.08-.12-.16-.23-.24-.34-.18-.26-.35-.5-.52-.75-.07-.1-.14-.21-.2-.32-.11-.18-.23-.36-.34-.52-.25-.34-.54-.48-.85-.42-.31,.06-.65,.3-.94,.52-.04,.03-.08,.06-.12,.09-.54,.41-1.16,.87-1.33,1.39-.14,.44,.12,.64,.39,.86,.03,.02,.06,.05,.09,.07,.18,.15,.32,.3,.43,.43,.15,.18,.28,.39,.41,.59,.09,.14,.18,.28,.26,.4,.3,.39,.68,.56,1.05,.73,.36,.16,.74,.33,1.02,.7,0,.01,0,.03,0,.04,0,.04,0,.08,0,.11-.34,.37-.76,.46-1.28,.28-.16-.05-.32-.14-.49-.23-.37-.2-.76-.41-1.21-.28-.32,.1-.54,.32-.76,.54-.21,.22-.43,.44-.75,.55-.19,.06-.38,.08-.65,.1-.68,.05-1.01,.13-1.29,.49-.37,.47-.82,1.3-.96,1.64-.05,.14-.09,.24-.1,.31-.12,.6,.25,1.06,.58,1.41,.08,.08,.17,.16,.25,.23,.08,.07,.16,.13,.23,.2,.15,.15,.27,.33,.38,.5,.06,.09,.12,.18,.18,.26,.46,.61,.6,1.14,.45,1.73-.11,.42-.35,.95-.91,1.09-.21,.05-.43,.08-.66,.11-.22,.03-.44,.05-.67,.1-.19,.04-.38,.1-.55,.16-.25,.08-.48,.15-.72,.18-.42,.06-.8-.03-1.16-.12-.32-.08-.62-.15-.92-.11H0c.3-.03,.6,.04,.92,.12,.36,.09,.74,.17,1.17,.12,.24-.03,.48-.1,.72-.18,.18-.06,.36-.11,.55-.16,.22-.05,.44-.08,.66-.1,.24-.03,.46-.05,.67-.11,.45-.12,.77-.5,.92-1.1,.15-.59,.01-1.12-.45-1.74-.06-.08-.12-.17-.18-.26-.12-.17-.24-.35-.39-.5-.07-.07-.15-.14-.23-.21-.08-.07-.17-.15-.25-.23-.33-.34-.7-.8-.58-1.39,.01-.07,.05-.18,.1-.31,.14-.34,.59-1.17,.96-1.64,.28-.35,.61-.43,1.28-.48,.27-.02,.46-.04,.65-.1,.32-.11,.54-.34,.76-.55,.22-.23,.44-.44,.75-.54,.44-.13,.83,.07,1.2,.28,.17,.09,.33,.18,.49,.23,.53,.18,.96,.08,1.3-.29h0s0-.08,0-.12v-.04h0s0,0,0,0c-.29-.38-.66-.54-1.03-.71-.37-.16-.75-.34-1.04-.72-.08-.11-.17-.25-.26-.4-.13-.21-.26-.42-.41-.59-.11-.13-.25-.28-.43-.43-.03-.02-.06-.05-.09-.07-.27-.21-.52-.42-.38-.84,.16-.51,.78-.97,1.32-1.38,.04-.03,.08-.06,.12-.09,.29-.22,.63-.46,.93-.52s.59,.08,.84,.41c.12,.15,.23,.34,.34,.51,.07,.11,.13,.21,.2,.32,.17,.26,.34,.5,.52,.75,.08,.11,.16,.22,.24,.34,.1,.14,.2,.28,.3,.41,.13,.17,.25,.34,.35,.5,.1,.15,.32,.49,.21,.83-.11,.35-.5,.71-.87,1.07-.22,.21-.42,.4-.57,.59-.09,.11-.02,.3,.06,.47,.03,.08,.07,.16,.08,.24,.09,.4-.14,.68-.38,.98-.11,.13-.22,.27-.31,.42h0c-.01,.06-.04,.11-.06,.16-.02,.04-.04,.08-.05,.12-.13,.52,.02,1.02,.42,1.4,.57,.54,1.55,.77,2.29,.54,.39-.12,.77-.45,1.06-.9,.29-.46,.53-.88,.63-1.12,.05-.11,.11-.28,.13-.47,.04-.33,0-.67-.03-1.03-.02-.17-.03-.34-.04-.51-.02-.37,.04-.63,.18-.81,.14-.18,.37-.3,.72-.37,.42-.08,.82-.08,1.14-.01,.7,.15,1.45,.97,1.62,1.75,.05,.23,0,.46-.04,.67-.07,.34-.22,.71-.35,1.08-.05,.13-.1,.25-.14,.38-.01,.03-.02,.06-.03,.09-.02,.07-.05,.13-.07,.2-.09,.24-.21,.48-.34,.73-.04,.06-.08,.13-.12,.19-.07,.11-.14,.22-.19,.34-.02,.05-.04,.1-.05,.15-.05,.16-.1,.31-.21,.46-.13,.18-.28,.34-.43,.49-.09,.09-.16,.18-.22,.28-.06,.08-.12,.17-.19,.25-.09,.09-.19,.18-.28,.27-.1,.09-.21,.19-.3,.29-.06,.07-.12,.13-.17,.2-.05,.06-.1,.12-.15,.18-.03,.03-.06,.06-.09,.09-.06,.05-.12,.1-.15,.17-.05,.09-.09,.18-.13,.28-.05,.12-.1,.24-.17,.35-.26,.37-.7,.6-1.36,.7-.29,.05-.61,.07-.91,.09-.51,.03-.99,.07-1.33,.2-.2,.08-.38,.2-.55,.32-.2,.14-.38,.27-.57,.3-.36,.07-.6-.22-.8-.48-.08-.1-.16-.2-.25-.27-.07-.06-.13-.12-.19-.19-.11-.11-.21-.22-.36-.3-.18-.1-.38-.19-.57-.26-.04-.02-.08-.03-.12-.05-.55-.23-.87-.52-1.09-1-.14-.3-.2-.62-.18-1.05,.01-.43-.36-.74-.66-.98h-.01c-.06-.06-.13-.11-.2-.17-.32-.25-.65-.51-.77-.89-.04-.13-.03-.25-.01-.39,.09-.68,.58-1.19,1.28-1.34,.23-.05,.43-.07,.63-.1,.19-.02,.37-.05,.54-.08,.1-.02,.22-.06,.33-.09,.05-.02,.1-.03,.14-.04,.27-.08,.48-.06,.64,.04,.3,.19,.41,.67,.51,1.28,.02,.13,.07,.26,.11,.4,.09,.26,.18,.53,.11,.79-.04,.16-.15,.32-.25,.48-.23,.36-.44,.69,0,1.05,.1,.08,.21,.16,.31,.24,.4,.29,.78,.57,.88,1.13,.09,.5,.41,.81,.96,.92,1.09,.23,1.95,.25,2.55,.07,.47-.15,.83-.5,.95-.94,.14-.49,.37-1.02,.7-1.62,.1-.18,.22-.39,.39-.58,.12-.13,.26-.25,.39-.36,.11-.09,.22-.18,.32-.28,.07-.07,.14-.15,.21-.21,.19-.19,.39-.39,.57-.59,.32-.37,.55-.85,.73-1.46l.02-.06c.11-.37,.24-.83,.07-1.27-.21-.55-.73-.95-1.32-1-.46-.04-.72,.16-.8,.61-.04,.22-.02,.43,0,.63,0,.06,0,.12,.01,.18,0,.08,.01,.16,.02,.24,.02,.2,.03,.41,.02,.62-.05,.66-.25,.91-.62,1.32-.38,.42-.83,.88-1.24,1.08-.26,.12-.95,.39-1.77,.25-1.4-.24-2.21-.93-2.4-2.04-.02-.12-.03-.23-.04-.35-.01-.14-.03-.28-.06-.46-.05-.28-.25-.57-.54-.82-.29-.24-.62-.4-.92-.42-.34-.03-.6,.17-.81,.33l-.03,.02c-.22,.17-.42,.31-.7,.42-.18,.07-.43,.11-.67,.15-.19,.03-.38,.07-.52,.11-.84,.24-1.24,1.19-1.37,1.58v.03c-.07,.18-.14,.39-.09,.65,.08,.38,.39,.7,.64,.91,.56,.46,.9,1.12,1.16,1.71,.06,.13,.08,.26,.11,.4,.03,.14,.05,.28,.12,.42,.13,.3,.3,.53,.49,.7,.18,.16,.4,.26,.6,.36,.16,.08,.33,.16,.47,.26,.3,.21,.59,.48,.49,.94-.05,.23-.26,.46-.46,.66-.05,.05-.1,.1-.14,.15-.27,.3-.44,.5-.55,.83-.08,.25-.08,.7-.01,1.02,.06,.26,.12,.51,.19,.75h.01c-.07-.24-.14-.49-.19-.75-.07-.32-.06-.76,.01-1.01Z"/>
    </g>
  </g>
</svg>