<svg width="141" height="190" viewBox="0 0 141 190" fill="none" xmlns="http://www.w3.org/2000/svg">
<mask id="path-1-inside-1_1_645" fill="white">
<path d="M3.98254 98.7764C2.14551 106.6 0.258157 114.75 1.0131 126.875C7.10297 147.981 14.3001 163.929 22.9568 175.652C24.9699 178.369 27.4613 181.488 30.5817 183.978C35.061 187.576 41.4528 189.689 47.593 189.689C53.7836 189.689 59.0933 187.576 62.4906 183.651C66.2905 179.35 67.6997 173.136 66.6679 165.212C66.064 160.785 64.4534 156.106 62.8681 151.578C61.2827 147.075 59.647 142.421 59.0682 137.994C56.7279 120.788 64.1011 102.927 78.6967 90.299C84.8872 84.9157 91.3042 80.5386 97.4444 76.3376C104.113 71.7342 111.008 67.0049 117.526 61.0682C127.441 52.0876 138.664 41.8745 140.526 26.4792V26.4289C139.344 19.1338 137.079 11.6374 128.8 6.30444C124.094 3.23545 118.91 1.82674 112.443 1.82674C106.932 1.82674 101.269 2.85812 95.2551 3.93981C88.7877 5.09697 82.0688 6.30444 75.1233 6.30444C73.4121 6.30444 71.726 6.22897 70.1155 6.10319C66.8189 5.80132 62.6416 4.76994 58.2881 3.68825C52.3995 2.25438 46.3097 0.770203 41.5032 0.770203C40.4966 0.770203 39.5655 0.84567 38.7351 0.996603C32.2426 1.97767 25.3474 7.61253 20.0628 12.4172C11.2803 20.3916 2.97595 28.6929 1.61705 35.5352C1.08859 38.2017 1.26474 42.5033 1.61705 45.5975C2.09518 50.3267 3.12694 54.3013 4.10836 58.1753C5.81957 65.0679 7.60627 72.187 6.7255 83.5824C6.2977 89.1167 5.21561 93.8459 4.03287 98.7764H3.98254ZM4.36001 58.0998C3.40375 54.251 2.37199 50.2513 1.89386 45.5723C1.56672 42.453 1.39057 38.2269 1.89386 35.6107C3.25276 28.8438 11.5068 20.5928 20.239 12.6436C25.4984 7.88924 32.318 2.30469 38.7351 1.29847C39.5655 1.17269 40.4463 1.12238 41.4529 1.12238C46.2342 1.12238 52.324 2.5814 58.1622 4.04043C62.5409 5.09696 66.7183 6.10319 70.0148 6.43021C71.6505 6.58115 73.3366 6.65661 75.073 6.65661C82.0688 6.65661 88.7877 5.44915 95.2551 4.24168C101.269 3.18514 106.932 2.15376 112.417 2.15376C118.809 2.15376 123.943 3.56248 128.624 6.58115C136.777 11.889 139.017 19.2344 140.174 26.5044C138.312 41.7487 127.164 51.8864 117.299 60.8669C110.757 66.7785 103.887 71.4826 97.2431 76.0609C91.0526 80.2871 84.6859 84.6893 78.445 90.0977C63.7488 102.776 56.3504 120.737 58.6907 138.069C59.2947 142.522 60.9304 147.176 62.5157 151.704C64.1011 156.207 65.7368 160.886 66.2905 165.288C67.3474 173.111 65.9633 179.224 62.1886 183.5C58.8417 187.324 53.6578 189.412 47.5427 189.412C41.478 189.412 35.1868 187.299 30.7327 183.777C27.6374 181.287 25.1713 178.193 23.1581 175.501C14.5014 163.829 7.35461 147.905 1.26474 126.85C0.484636 114.801 2.39716 106.7 4.25935 98.9274C5.4421 93.9466 6.52418 89.2173 6.92681 83.6579C7.78241 72.2121 6.04605 65.0679 4.30969 58.1501L4.36001 58.0998Z"/>
</mask>
<path d="M3.98254 98.7764V97.7764H3.19015L3.00902 98.5478L3.98254 98.7764ZM1.0131 126.875L0.0150326 126.937L0.0218561 127.047L0.0522973 127.152L1.0131 126.875ZM22.9568 175.652L22.1523 176.246L22.1533 176.247L22.9568 175.652ZM30.5817 183.978L31.2078 183.199L31.2055 183.197L30.5817 183.978ZM62.4906 183.651L61.7411 182.989L61.7345 182.997L62.4906 183.651ZM66.6679 165.212L67.6596 165.083L67.6588 165.077L66.6679 165.212ZM62.868 151.578L63.8119 151.248L63.8113 151.246L62.868 151.578ZM59.0682 137.994L60.0598 137.864L60.0591 137.859L59.0682 137.994ZM78.6967 90.299L79.351 91.0552L79.3529 91.0536L78.6967 90.299ZM97.4444 76.3376L98.0091 77.163L98.0125 77.1606L97.4444 76.3376ZM117.526 61.0682L116.855 60.327L116.853 60.3289L117.526 61.0682ZM140.526 26.4792L141.519 26.5993L141.526 26.5395V26.4792H140.526ZM140.526 26.4289H141.526V26.3484L141.514 26.2689L140.526 26.4289ZM128.8 6.30444L128.253 7.14206L128.258 7.14512L128.8 6.30444ZM95.2551 3.93981L95.4312 4.92418L95.4321 4.92402L95.2551 3.93981ZM70.1155 6.10319L70.0243 7.09911L70.0376 7.10015L70.1155 6.10319ZM58.2881 3.68825L58.5292 2.71775L58.5247 2.71664L58.2881 3.68825ZM38.7351 0.996603L38.8845 1.98538L38.8992 1.98315L38.9139 1.98048L38.7351 0.996603ZM20.0628 12.4172L20.735 13.1576L20.7355 13.1572L20.0628 12.4172ZM1.61705 35.5352L0.636205 35.3404L0.636127 35.3408L1.61705 35.5352ZM1.61705 45.5975L2.61206 45.4969L2.61063 45.4844L1.61705 45.5975ZM4.10836 58.1753L5.07891 57.9343L5.07774 57.9297L4.10836 58.1753ZM6.7255 83.5824L7.72252 83.6595L7.72253 83.6595L6.7255 83.5824ZM4.03287 98.7764V99.7764H4.82136L5.00528 99.0097L4.03287 98.7764ZM4.36001 58.0998L5.06698 58.8071L5.46682 58.4074L5.3305 57.8587L4.36001 58.0998ZM1.89386 45.5723L2.88869 45.4707L2.88841 45.468L1.89386 45.5723ZM1.89386 35.6107L0.913404 35.4138L0.911869 35.4218L1.89386 35.6107ZM20.239 12.6437L19.5684 11.9018L19.5658 11.9042L20.239 12.6437ZM38.7351 1.29847L38.5853 0.309731L38.5801 0.31054L38.7351 1.29847ZM58.1622 4.04043L57.9198 5.01062L57.9277 5.01253L58.1622 4.04043ZM70.0148 6.43021L69.9161 7.42535L69.923 7.42598L70.0148 6.43021ZM95.2551 4.24168L95.0821 3.2567L95.0715 3.25866L95.2551 4.24168ZM128.624 6.58115L129.169 5.74308L129.166 5.74076L128.624 6.58115ZM140.174 26.5044L141.167 26.6256L141.184 26.486L141.162 26.3471L140.174 26.5044ZM117.299 60.8669L117.97 61.6089L117.973 61.6064L117.299 60.8669ZM97.2431 76.0609L97.8069 76.8868L97.8105 76.8843L97.2431 76.0609ZM78.445 90.0977L79.0982 90.8549L79.0999 90.8535L78.445 90.0977ZM58.6907 138.069L57.6997 138.203L57.6998 138.204L58.6907 138.069ZM62.5157 151.704L61.5719 152.034L61.5725 152.036L62.5157 151.704ZM66.2905 165.288L65.2982 165.413L65.2995 165.422L66.2905 165.288ZM62.1886 183.5L61.4389 182.839L61.4362 182.842L62.1886 183.5ZM30.7327 183.777L30.1058 184.556L30.1124 184.562L30.7327 183.777ZM23.1581 175.501L22.3549 176.097L22.3573 176.1L23.1581 175.501ZM1.26474 126.85L0.266833 126.915L0.273867 127.023L0.304118 127.128L1.26474 126.85ZM4.25935 98.9274L5.23184 99.1603L5.2323 99.1584L4.25935 98.9274ZM6.92681 83.6579L5.92959 83.5834L5.92942 83.5857L6.92681 83.6579ZM4.30969 58.1501L3.60271 57.4429L3.20175 57.8437L3.33977 58.3936L4.30969 58.1501ZM3.00902 98.5478C1.16722 106.392 -0.749405 114.66 0.0150326 126.937L2.01117 126.813C1.26572 114.841 3.1238 106.808 4.95606 99.005L3.00902 98.5478ZM0.0522973 127.152C6.16045 148.321 13.3994 164.393 22.1523 176.246L23.7612 175.058C15.2007 163.466 8.04549 147.64 1.9739 126.598L0.0522973 127.152ZM22.1533 176.247C24.1773 178.979 26.7316 182.185 29.9579 184.76L31.2055 183.197C28.1909 180.791 25.7626 177.759 23.7602 175.057L22.1533 176.247ZM29.9555 184.758C34.6293 188.512 41.2478 190.689 47.593 190.689V188.689C41.6579 188.689 35.4927 186.64 31.2078 183.199L29.9555 184.758ZM47.593 190.689C54.0042 190.689 59.6182 188.497 63.2466 184.306L61.7345 182.997C58.5685 186.654 53.563 188.689 47.593 188.689V190.689ZM63.24 184.313C67.2971 179.721 68.7134 173.177 67.6596 165.083L65.6763 165.341C66.6859 173.096 65.2839 178.979 61.7411 182.989L63.24 184.313ZM67.6588 165.077C67.0388 160.533 65.3911 155.758 63.8119 151.248L61.9242 151.908C63.5158 156.454 65.0891 161.037 65.6771 165.348L67.6588 165.077ZM63.8113 151.246C62.2178 146.72 60.6224 142.169 60.0597 137.864L58.0766 138.124C58.6715 142.674 60.3475 147.43 61.9248 151.91L63.8113 151.246ZM60.0591 137.859C57.7701 121.031 64.9762 103.492 79.351 91.0552L78.0424 89.5428C63.2261 102.362 55.6856 120.544 58.0773 138.129L60.0591 137.859ZM79.3529 91.0536C85.4928 85.7143 91.8622 81.3685 98.0091 77.1629L96.8798 75.5123C90.7463 79.7087 84.2816 84.1171 78.0405 89.5444L79.3529 91.0536ZM98.0125 77.1606C104.672 72.5634 111.624 67.7971 118.199 61.8075L116.853 60.3289C110.393 66.2127 103.554 70.9049 96.8763 75.5147L98.0125 77.1606ZM118.197 61.8093C128.064 52.8723 139.605 42.4215 141.519 26.5993L139.534 26.3591C137.723 41.3274 126.818 51.303 116.855 60.327L118.197 61.8093ZM141.526 26.4792V26.4289H139.526V26.4792H141.526ZM141.514 26.2689C140.315 18.873 137.977 11.0267 129.341 5.46375L128.258 7.14512C136.18 12.2481 138.373 19.3945 139.539 26.5889L141.514 26.2689ZM129.346 5.46682C124.453 2.27564 119.072 0.826743 112.443 0.826743V2.82674C118.748 2.82674 123.735 4.19527 128.253 7.14205L129.346 5.46682ZM112.443 0.826743C106.825 0.826743 101.071 1.87776 95.0781 2.9556L95.4321 4.92402C101.468 3.83849 107.038 2.82674 112.443 2.82674V0.826743ZM95.079 2.95545C88.5979 4.11505 81.9656 5.30444 75.1233 5.30444V7.30444C82.1719 7.30444 88.9775 6.07889 95.4312 4.92418L95.079 2.95545ZM75.1233 5.30444C73.4411 5.30444 71.7812 5.23023 70.1934 5.10622L70.0376 7.10015C71.6709 7.2277 73.3831 7.30444 75.1233 7.30444V5.30444ZM70.2067 5.10735C67.0027 4.81397 62.9084 3.80583 58.5292 2.71776L58.0469 4.65874C62.3748 5.73406 66.6351 6.78867 70.0243 7.09902L70.2067 5.10735ZM58.5247 2.71664C52.678 1.29297 46.4563 -0.229797 41.5032 -0.229797V1.7702C46.163 1.7702 52.121 3.21579 58.0515 4.65986L58.5247 2.71664ZM41.5032 -0.229797C40.4485 -0.229797 39.4563 -0.150868 38.5562 0.0127221L38.9139 1.98048C39.6747 1.84221 40.5447 1.7702 41.5032 1.7702V-0.229797ZM38.5856 0.00782835C35.1293 0.530105 31.6389 2.27458 28.391 4.44117C25.1324 6.61491 22.0439 9.26457 19.3901 11.6773L20.7355 13.1572C23.3664 10.7652 26.3677 8.19508 29.5009 6.10495C32.6449 4.00765 35.8483 2.44417 38.8845 1.98538L38.5856 0.00782835ZM19.3906 11.6769C14.9944 15.6685 10.6825 19.7733 7.29466 23.7525C3.92839 27.7063 1.36795 31.656 0.636205 35.3404L2.59789 35.73C3.22504 32.5722 5.49624 28.95 8.8175 25.049C12.1172 21.1733 16.3487 17.1403 20.735 13.1576L19.3906 11.6769ZM0.636127 35.3408C0.076001 38.1671 0.269031 42.5978 0.623469 45.7106L2.61063 45.4844C2.26045 42.4089 2.10118 38.2364 2.59797 35.7296L0.636127 35.3408ZM0.62212 45.6981C1.1088 50.5119 2.15984 54.5559 3.13899 58.4209L5.07774 57.9297C4.09404 54.0467 3.08155 50.1416 2.61198 45.4969L0.62212 45.6981ZM3.13783 58.4162C4.84264 65.2831 6.59649 72.2749 5.72847 83.5054L7.72253 83.6595C8.61604 72.099 6.79649 64.8527 5.0789 57.9343L3.13783 58.4162ZM5.72847 83.5054C5.30731 88.9538 4.24243 93.6159 3.06046 98.5432L5.00528 99.0097C6.1888 94.076 7.28809 89.2796 7.72252 83.6595L5.72847 83.5054ZM4.03287 97.7764H3.98254V99.7764H4.03287V97.7764ZM5.3305 57.8587C4.37114 53.9974 3.35837 50.067 2.88868 45.4707L0.899043 45.674C1.38562 50.4356 2.43635 54.5046 3.38951 58.3409L5.3305 57.8587ZM2.88841 45.468C2.56233 42.3588 2.40258 38.2598 2.87586 35.7996L0.911869 35.4218C0.378558 38.194 0.571115 42.5472 0.899317 45.6766L2.88841 45.468ZM2.87429 35.8076C3.50096 32.687 5.7595 29.0958 9.06261 25.2191C12.3439 21.368 16.5506 17.3535 20.9121 13.3831L19.5658 11.9042C15.1951 15.8829 10.9088 19.9685 7.54027 23.922C4.19359 27.8498 1.64566 31.7676 0.913436 35.4138L2.87429 35.8076ZM20.9096 13.3855C23.5291 11.0175 26.5059 8.47182 29.6088 6.39674C32.7224 4.31455 35.8896 2.75688 38.89 2.2864L38.5801 0.31054C35.1635 0.846282 31.7124 2.584 28.497 4.73424C25.271 6.89159 22.2083 9.51538 19.5684 11.9018L20.9096 13.3855ZM38.8848 2.28719C39.6507 2.17119 40.4786 2.12238 41.4529 2.12238V0.12238C40.414 0.12238 39.4803 0.174193 38.5853 0.309744L38.8848 2.28719ZM41.4529 2.12238C46.0868 2.12238 52.0494 3.54352 57.9198 5.01059L58.4047 3.07027C52.5987 1.61928 46.3815 0.12238 41.4529 0.12238V2.12238ZM57.9277 5.01253C62.2821 6.06321 66.5355 7.08997 69.9161 7.42533L70.1136 5.4351C66.901 5.11641 62.7997 4.13071 58.3968 3.06833L57.9277 5.01253ZM69.923 7.42598C71.5909 7.57989 73.3076 7.65661 75.073 7.65661V5.65661C73.3655 5.65661 71.7102 5.5824 70.1067 5.43444L69.923 7.42598ZM75.073 7.65661C82.1735 7.65661 88.9777 6.43096 95.4386 5.22469L95.0715 3.25866C88.5978 4.46734 81.9641 5.65661 75.073 5.65661V7.65661ZM95.4281 5.2266C101.468 4.16561 107.037 3.15376 112.417 3.15376V1.15376C106.826 1.15376 101.071 2.20468 95.0821 3.25676L95.4281 5.2266ZM112.417 3.15376C118.645 3.15376 123.584 4.52122 128.082 7.42154L129.166 5.74076C124.301 2.60373 118.974 1.15376 112.417 1.15376V3.15376ZM128.078 7.41921C135.879 12.4977 138.046 19.4974 139.187 26.6616L141.162 26.3471C139.987 18.9714 137.675 11.2803 129.169 5.74309L128.078 7.41921ZM139.182 26.3831C137.371 41.2015 126.541 51.1008 116.626 60.1275L117.973 61.6064C127.787 52.6719 139.253 42.2959 141.167 26.6256L139.182 26.3831ZM116.629 60.1249C110.143 65.9852 103.328 70.6531 96.6757 75.2375L97.8105 76.8843C104.445 72.3121 111.37 67.5718 117.97 61.6089L116.629 60.1249ZM96.6793 75.235C90.4893 79.4608 84.0792 83.8918 77.7901 89.342L79.0999 90.8535C85.2925 85.4868 91.6158 81.1133 97.8069 76.8868L96.6793 75.235ZM77.7918 89.3406C62.873 102.211 55.3086 120.495 57.6997 138.203L59.6817 137.936C57.3922 120.98 64.6247 103.341 79.0982 90.8549L77.7918 89.3406ZM57.6998 138.204C58.32 142.776 59.9948 147.53 61.5719 152.034L63.4596 151.373C61.8659 146.822 60.2694 142.268 59.6816 137.935L57.6998 138.204ZM61.5725 152.036C63.1658 156.561 64.7605 161.136 65.2983 165.413L67.2826 165.163C66.7132 160.635 65.0364 155.852 63.459 151.372L61.5725 152.036ZM65.2995 165.422C66.3329 173.071 64.9567 178.853 61.4389 182.839L62.9383 184.162C66.9699 179.595 68.3619 173.151 67.2815 165.154L65.2995 165.422ZM61.4362 182.842C58.3181 186.404 53.4345 188.412 47.5427 188.412V190.412C53.881 190.412 59.3653 188.244 62.9411 184.159L61.4362 182.842ZM47.5427 188.412C41.6875 188.412 35.6186 186.366 31.3529 182.993L30.1124 184.562C34.7551 188.232 41.2685 190.412 47.5427 190.412V188.412ZM31.3595 182.998C28.3678 180.591 25.9638 177.583 23.9589 174.902L22.3573 176.1C24.3787 178.803 26.907 181.983 30.1058 184.556L31.3595 182.998ZM23.9613 174.905C15.4025 163.365 8.29758 147.566 2.22537 126.572L0.304118 127.128C6.41164 148.244 13.6003 164.292 22.3549 176.097L23.9613 174.905ZM2.26265 126.785C1.49266 114.892 3.37461 106.913 5.23184 99.1603L3.28687 98.6944C1.41972 106.488 -0.523384 114.709 0.266833 126.915L2.26265 126.785ZM5.2323 99.1584C6.41532 94.1764 7.51518 89.3777 7.9242 83.7301L5.92942 83.5857C5.53318 89.0568 4.46888 93.7167 3.28641 98.6963L5.2323 99.1584ZM7.92403 83.7324C8.79165 72.1259 7.02438 64.858 5.2796 57.9067L3.33977 58.3936C5.06772 65.2778 6.77318 72.2983 5.92959 83.5834L7.92403 83.7324ZM5.01666 58.8574L5.06698 58.8071L3.65303 57.3926L3.60271 57.4429L5.01666 58.8574Z" fill="black" mask="url(#path-1-inside-1_1_645)"/>
</svg>
